<svg version="1.2" xmlns="http://www.w3.org/2000/svg" viewBox="0 0 865 875" width="865" height="875">
	<title>frame24_01-ai</title>
	<defs>
		<linearGradient id="g1" x2="1" gradientUnits="userSpaceOnUse" gradientTransform="matrix(-548.957,809.597,-891.555,-604.529,1187.81,421.277)">
			<stop offset="0" stop-color="#eb485f"/>
			<stop offset=".571" stop-color="#e92a47"/>
			<stop offset=".86" stop-color="#ac2327"/>
		</linearGradient>
		<linearGradient id="g2" x2="1" gradientUnits="userSpaceOnUse" gradientTransform="matrix(950.86,-811.351,781.453,915.822,-162.475,461.171)">
			<stop offset="0" stop-color="#f27e92"/>
			<stop offset="1" stop-color="#e9666b"/>
		</linearGradient>
		<linearGradient id="g3" x2="1" gradientUnits="userSpaceOnUse" gradientTransform="matrix(-397.842,586.734,-641.822,-435.195,692.942,282.26)">
			<stop offset="0" stop-color="#eb485f"/>
			<stop offset=".571" stop-color="#e92a47"/>
			<stop offset=".86" stop-color="#ac2327"/>
		</linearGradient>
		<linearGradient id="g4" x2="1" gradientUnits="userSpaceOnUse" gradientTransform="matrix(686.035,-585.381,565.398,662.616,-300.878,295.554)">
			<stop offset="0" stop-color="#f27e92"/>
			<stop offset="1" stop-color="#e9666b"/>
		</linearGradient>
		<linearGradient id="g5" x2="1" gradientUnits="userSpaceOnUse" gradientTransform="matrix(-896.567,1337.285,-1480.965,-992.895,1307.892,78.775)">
			<stop offset=".076" stop-color="#fefefe"/>
			<stop offset="1" stop-color="#d1d5db"/>
		</linearGradient>
		<linearGradient id="g6" x2="1" gradientUnits="userSpaceOnUse" gradientTransform="matrix(434.825,-269.13,21.086,34.069,188.319,112.813)">
			<stop offset="0" stop-color="#eb485f"/>
			<stop offset=".571" stop-color="#e92a47"/>
			<stop offset=".86" stop-color="#ac2327"/>
		</linearGradient>
		<linearGradient id="g7" x2="1" gradientUnits="userSpaceOnUse" gradientTransform="matrix(304.722,-176.632,6.998,12.073,376.005,75.994)">
			<stop offset="0" stop-color="#eb485f"/>
			<stop offset=".571" stop-color="#e92a47"/>
			<stop offset=".86" stop-color="#ac2327"/>
		</linearGradient>
		<linearGradient id="g8" x2="1" gradientUnits="userSpaceOnUse" gradientTransform="matrix(-37.34,22.492,-22.492,-37.34,596.942,23.893)">
			<stop offset="0" stop-color="#eb485f"/>
			<stop offset=".571" stop-color="#e92a47"/>
			<stop offset=".86" stop-color="#ac2327"/>
		</linearGradient>
		<linearGradient id="g9" x2="1" gradientUnits="userSpaceOnUse" gradientTransform="matrix(-494.558,299.188,-20.044,-33.133,677.546,754.119)">
			<stop offset="0" stop-color="#eb485f"/>
			<stop offset=".571" stop-color="#e92a47"/>
			<stop offset=".86" stop-color="#ac2327"/>
		</linearGradient>
		<linearGradient id="g10" x2="1" gradientUnits="userSpaceOnUse" gradientTransform="matrix(-279.041,157.894,-7.148,-12.632,470.183,790.32)">
			<stop offset="0" stop-color="#eb485f"/>
			<stop offset=".571" stop-color="#e92a47"/>
			<stop offset=".86" stop-color="#ac2327"/>
		</linearGradient>
		<linearGradient id="g11" x2="1" gradientUnits="userSpaceOnUse" gradientTransform="matrix(-38.63,23.269,-23.269,-38.63,276.471,861.497)">
			<stop offset="0" stop-color="#eb485f"/>
			<stop offset=".571" stop-color="#e92a47"/>
			<stop offset=".86" stop-color="#ac2327"/>
		</linearGradient>
	</defs>
	<style>
		.s0 { fill: url(#g1) } 
		.s1 { fill: url(#g2) } 
		.s2 { fill: url(#g3) } 
		.s3 { fill: url(#g4) } 
		.s4 { opacity: 0;fill: #433c40 } 
		.s5 { opacity: 0;fill: #423b40 } 
		.s6 { opacity: .1;fill: #413b40 } 
		.s7 { opacity: .1;fill: #403b3f } 
		.s8 { opacity: .1;fill: #3e3a3f } 
		.s9 { opacity: .1;fill: #3d3a3f } 
		.s10 { opacity: .2;fill: #3c393f } 
		.s11 { opacity: .2;fill: #3b393f } 
		.s12 { opacity: .2;fill: #3a393f } 
		.s13 { opacity: .3;fill: #39383f } 
		.s14 { opacity: .3;fill: #38383f } 
		.s15 { opacity: .3;fill: #37373f } 
		.s16 { opacity: .3;fill: #35373e } 
		.s17 { opacity: .4;fill: #34373e } 
		.s18 { opacity: .4;fill: #33363e } 
		.s19 { opacity: .4;fill: #32363e } 
		.s20 { opacity: .5;fill: #31363e } 
		.s21 { opacity: .5;fill: #30353e } 
		.s22 { opacity: .5;fill: #2e353e } 
		.s23 { opacity: .6;fill: #2d343e } 
		.s24 { opacity: .6;fill: #2c343e } 
		.s25 { opacity: .6;fill: #2b343e } 
		.s26 { opacity: .6;fill: #2a333d } 
		.s27 { opacity: .7;fill: #29333d } 
		.s28 { opacity: .7;fill: #27333d } 
		.s29 { opacity: .7;fill: #26323d } 
		.s30 { opacity: .8;fill: #24323d } 
		.s31 { opacity: .8;fill: #22313d } 
		.s32 { opacity: .8;fill: #21313d } 
		.s33 { opacity: .8;fill: #1f313c } 
		.s34 { opacity: .9;fill: #1d303c } 
		.s35 { opacity: .9;fill: #1c303c } 
		.s36 { fill: url(#g5) } 
		.s37 { fill: #fefefe } 
		.s38 { fill: url(#g6) } 
		.s39 { fill: url(#g7) } 
		.s40 { fill: url(#g8) } 
		.s41 { fill: url(#g9) } 
		.s42 { fill: url(#g10) } 
		.s43 { fill: url(#g11) } 
	</style>
	<g id="_Artboards_">
	</g>
	<g id="Layer 1">
		<g id="&lt;Group&gt;">
			<g id="&lt;Group&gt;">
				<path id="&lt;Path&gt;" class="s0" d="m533.2 177.7l-255.1 144.8c-11.6 6.6-18.8 18.8-18.8 32.1v289.8c0 13.3 7.3 25.6 19.1 32.2l255.1 142.8c11.6 6.5 25.8 6.5 37.5 0l255.1-142.8c11.8-6.6 19.1-18.9 19.1-32.2v-288.1c0-13.1-7.2-25.3-18.8-32l-255.2-146.6c-11.7-6.7-26.3-6.7-38 0z"/>
				<path id="&lt;Compound Path&gt;" fill-rule="evenodd" class="s1" d="m571.2 171.1l262.1 150c11.6 6.6 18.8 18.8 18.8 32v294.7c0 13.3-7.3 25.6-19.1 32.2l-262.1 146.2c-11.6 6.5-25.8 6.5-37.4 0l-262-146.1c-11.8-6.6-19.1-18.9-19.1-32.3v-296.4c0-13.3 7.2-25.6 18.9-32.2l261.9-148.2c11.8-6.7 26.2-6.7 38 0.1zm274 473.3v-288.1c0-13.1-7.2-25.3-18.8-32l-255.2-146.6c-11.7-6.7-26.3-6.7-38 0l-255.1 144.8c-11.6 6.6-18.8 18.8-18.8 32.1v289.8c0 13.3 7.3 25.6 19.1 32.2l255.1 142.8c11.6 6.5 25.8 6.5 37.5 0l255.1-142.8c11.8-6.6 19.1-18.9 19.1-32.2z"/>
			</g>
			<path id="&lt;Path&gt;" class="s2" d="m209 96.2l-181 106.2c-8.3 4.9-13.4 13.9-13.4 23.6v212.7c0 9.7 5.2 18.8 13.5 23.6l181.1 104.8c8.3 4.7 18.4 4.7 26.6 0l181.1-104.8c8.4-4.9 13.6-13.9 13.6-23.7v-211.3c0-9.7-5.1-18.6-13.3-23.5l-181.2-107.6c-8.3-4.9-18.6-4.9-27 0z"/>
			<path id="&lt;Compound Path&gt;" fill-rule="evenodd" class="s3" d="m236 91.3l186.1 110.1c8.2 4.9 13.3 13.9 13.3 23.5v216.2c0 9.8-5.2 18.9-13.6 23.7l-186 107.3c-8.2 4.7-18.3 4.7-26.5 0l-186-107.3c-8.4-4.8-13.6-13.8-13.6-23.6v-217.6c0-9.7 5.1-18.7 13.4-23.6l186-108.7c8.3-4.9 18.6-4.9 26.9 0zm194.5 347.3v-211.3c0-9.7-5.1-18.6-13.3-23.5l-181.2-107.6c-8.3-4.9-18.6-4.9-27 0l-181 106.2c-8.3 4.9-13.4 13.9-13.4 23.6v212.7c0 9.7 5.2 18.8 13.5 23.6l181.1 104.8c8.3 4.7 18.4 4.7 26.6 0l181.1-104.8c8.4-4.9 13.6-13.9 13.6-23.7z"/>
			<g id="&lt;Group&gt;">
				<g id="&lt;Group&gt;">
					<g id="&lt;Group&gt;" style="opacity: .7">
						<path id="&lt;Path&gt;" class="s4" d="m803.4 335.8l-311-168.4c-22-23.1-88.5-1-110.6 18.6l-308.2 158.3c-22.1 19.6-25.2 299.6-2.2 323.9l317.3 179.7c24 25.3 108.7 18.2 129.5-0.2l295.5-175.5c26-23.1 10.7-314.3-10.3-336.4z"/>
						<path id="&lt;Path&gt;" class="s5" d="m76.1 345c-21.8 19.3-24.9 297.4-2.3 321.2l315.4 178.5c16.8 17.8 62.6 19.6 95.6 12.8 14.2-2.9 26.8-7.7 32.9-13.2l293.8-174.5c25.6-22.6 10.1-313.5-10.5-335.3l-308.5-165.2c-21.3-22.4-88.1-1.8-109.5 17.2z"/>
						<path id="&lt;Path&gt;" class="s6" d="m78.5 345.7c-21.4 19-24.5 295.1-2.3 318.6l313.4 177.1c17 18 62.4 19.7 95 12.8 13.6-2.8 26.7-7.9 32.7-13.2l292.1-173.5c25.1-22.3 9.5-312.7-10.9-334.2l-305.9-162.1c-20.5-21.7-87.8-2.6-108.5 15.8z"/>
						<path id="&lt;Path&gt;" class="s7" d="m80.9 346.4c-21 18.7-24.1 292.8-2.2 315.9l311.4 175.9c17.1 18.2 62.1 19.7 94.3 12.8 13.1-2.9 26.7-8.3 32.4-13.3l290.4-172.5c24.6-21.9 9-312-11.1-333.1l-303.4-159c-19.8-21-87.5-3.3-107.4 14.4z"/>
						<path id="&lt;Path&gt;" class="s8" d="m83.4 347c-20.7 18.4-23.8 290.7-2.3 313.3l309.5 174.7c17.2 18.3 61.9 19.7 93.6 12.7 12.6-2.8 26.6-8.5 32.1-13.3l288.8-171.6c24.1-21.4 8.4-311.1-11.4-331.9l-300.8-156c-19.2-20.1-87.2-4-106.5 13.1z"/>
						<path id="&lt;Path&gt;" class="s9" d="m85.8 347.7c-20.3 18.1-23.4 288.4-2.3 310.6l307.5 173.4c17.4 18.6 61.7 19.8 92.9 12.8 12.2-2.8 26.6-8.8 31.9-13.5l287.1-170.5c23.7-21 7.8-310.4-11.6-330.8l-298.3-152.9c-18.5-19.4-86.9-4.8-105.5 11.6z"/>
						<path id="&lt;Path&gt;" class="s10" d="m88.3 348.4c-20 17.8-23.1 286.1-2.3 308l305.5 172.1c17.5 18.7 61.4 19.9 92.2 12.7 11.7-2.7 26.6-9 31.7-13.5l285.4-169.6c23.1-20.5 7.2-309.5-11.9-329.6l-295.8-149.8c-17.8-18.7-86.6-5.6-104.4 10.2z"/>
						<path id="&lt;Path&gt;" class="s11" d="m90.7 349.1c-19.7 17.4-22.6 283.9-2.3 305.3l303.5 170.9c17.7 18.9 61.2 19.9 91.6 12.7 11.2-2.7 26.5-9.3 31.4-13.6l283.7-168.6c22.7-20.2 6.7-308.7-12.1-328.5l-293.3-146.7c-17.1-18-86.3-6.4-103.4 8.8z"/>
						<path id="&lt;Path&gt;" class="s12" d="m93.1 349.8c-19.3 17.1-22.2 281.6-2.3 302.6l301.6 169.6c17.8 19.1 60.9 20 90.9 12.7 10.7-2.6 26.4-9.5 31.1-13.6l282-167.6c22.3-19.8 6.2-308-12.3-327.4l-290.8-143.7c-16.3-17.1-85.9-7.1-102.3 7.5z"/>
						<path id="&lt;Path&gt;" class="s13" d="m95.6 350.5c-19 16.8-21.9 279.3-2.3 300l299.6 168.3c17.9 19.2 60.6 20 90.1 12.6 10.3-2.5 26.5-9.7 30.9-13.7l280.4-166.6c21.7-19.3 5.5-307.1-12.6-326.2l-288.3-140.6c-15.6-16.4-85.6-7.8-101.3 6.1z"/>
						<path id="&lt;Path&gt;" class="s14" d="m98 351.1c-18.6 16.6-21.5 277.2-2.3 297.4l297.6 167.1c18.1 19.4 60.4 20.1 89.5 12.6 9.8-2.5 26.4-10 30.7-13.8l278.6-165.6c21.3-18.9 5-306.4-12.8-325.1l-285.8-137.5c-14.9-15.7-85.3-8.6-100.3 4.7z"/>
						<path id="&lt;Path&gt;" class="s15" d="m100.5 351.8c-18.3 16.2-21.2 274.9-2.4 294.7l295.7 165.8c18.2 19.6 60.1 20.2 88.8 12.6 9.3-2.4 26.3-10.2 30.4-13.8l277-164.7c20.8-18.4 4.4-305.5-13.1-324l-283.3-134.3c-14.2-15-85-9.4-99.2 3.3z"/>
						<path id="&lt;Path&gt;" class="s16" d="m102.9 352.5c-17.9 15.9-20.8 272.7-2.4 292l293.7 164.6c18.4 19.8 59.9 20.2 88.2 12.6 8.8-2.4 26.3-10.5 30.1-13.9l275.3-163.7c20.3-18 3.9-304.8-13.3-322.9l-280.8-131.2c-13.5-14.3-84.6-10.2-98.2 1.9z"/>
						<path id="&lt;Path&gt;" class="s17" d="m105.4 353.2c-17.6 15.6-20.4 270.4-2.4 289.4l291.7 163.3c18.5 19.9 59.6 20.2 87.4 12.5 8.4-2.3 26.3-10.7 30-13.9l273.6-162.7c19.8-17.7 3.2-304-13.6-321.8l-278.3-128.2c-12.7-13.4-84.3-10.9-97.1 0.5z"/>
						<path id="&lt;Path&gt;" class="s18" d="m107.8 353.9c-17.2 15.3-20 268.1-2.4 286.7l289.8 162c18.6 20.2 59.3 20.4 86.7 12.6 7.9-2.3 26.2-11 29.7-14.1l271.9-161.7c19.4-17.2 2.7-303.2-13.8-320.6l-275.8-125.1c-12-12.7-84-11.6-96.1-0.9z"/>
						<path id="&lt;Path&gt;" class="s19" d="m110.2 354.6c-16.8 14.9-19.6 265.9-2.4 284l287.8 160.8c18.8 20.3 59.1 20.4 86.1 12.5 7.4-2.1 26.2-11.2 29.4-14.1l270.2-160.7c18.9-16.8 2.2-302.4-14-319.5l-273.2-122c-11.4-12-83.8-12.4-95.2-2.3z"/>
						<path id="&lt;Path&gt;" class="s20" d="m112.7 355.2c-16.5 14.7-19.3 263.7-2.4 281.5l285.8 159.4c18.9 20.5 58.8 20.5 85.4 12.6 6.9-2.1 26.1-11.5 29.1-14.2l268.6-159.8c18.4-16.3 1.6-301.6-14.3-318.3l-270.7-118.9c-10.7-11.3-83.4-13.2-94.1-3.7z"/>
						<path id="&lt;Path&gt;" class="s21" d="m115.1 355.9c-16.1 14.4-18.9 261.4-2.4 278.8l283.8 158.2c19.1 20.7 58.5 20.5 84.7 12.5 6.5-2 26.1-11.7 29-14.2l266.8-158.8c18-15.9 1-300.8-14.5-317.2l-268.2-115.9c-10-10.4-83.1-13.9-93.1-5z"/>
						<path id="&lt;Path&gt;" class="s22" d="m117.6 356.6c-15.9 14-18.6 259.2-2.5 276.1l281.9 157c19.2 20.8 58.2 20.6 84 12.5 6-1.9 26-12 28.7-14.4l265.2-157.7c17.4-15.6 0.4-300.1-14.8-316.1l-265.7-112.8c-9.2-9.7-82.8-14.7-92-6.4z"/>
						<path id="&lt;Path&gt;" class="s23" d="m120 357.3c-15.5 13.7-18.2 256.9-2.4 273.4l279.9 155.7c19.3 21.1 57.9 20.7 83.3 12.5 5.5-1.8 26-12.2 28.4-14.4l263.5-156.8c17-15.1-0.1-299.2-15-314.9l-263.2-109.7c-8.5-9-82.5-15.4-91-7.8z"/>
						<path id="&lt;Path&gt;" class="s24" d="m122.4 358c-15.1 13.4-17.7 254.6-2.4 270.8l277.9 154.4c19.5 21.2 57.6 20.7 82.7 12.4 5-1.6 25.9-12.4 28.2-14.4l261.8-155.8c16.5-14.7-0.7-298.5-15.3-313.9l-260.7-106.5c-7.8-8.3-82.1-16.2-90-9.3z"/>
						<path id="&lt;Path&gt;" class="s25" d="m124.9 358.7c-14.8 13.1-17.4 252.4-2.5 268.1l276 153.2c19.6 21.4 57.3 20.8 81.9 12.4 4.6-1.6 25.9-12.7 28-14.5l260.1-154.9c16-14.2-1.3-297.6-15.5-312.7l-258.2-103.5c-7.1-7.4-81.8-16.9-88.9-10.6z"/>
						<path id="&lt;Path&gt;" class="s26" d="m127.3 359.3c-14.4 12.8-17 250.2-2.4 265.5l273.9 151.9c19.8 21.6 57.1 20.9 81.3 12.4 4.1-1.4 25.9-12.9 27.7-14.5l258.4-153.9c15.6-13.8-1.8-296.9-15.8-311.6l-255.6-100.4c-6.4-6.7-81.5-17.7-87.9-12z"/>
						<path id="&lt;Path&gt;" class="s27" d="m129.8 360c-14.1 12.5-16.7 247.9-2.5 262.9l272 150.6c19.9 21.7 56.7 21 80.6 12.4 3.6-1.3 25.8-13.2 27.4-14.7l256.8-152.9c15.1-13.3-2.4-296-16.1-310.4l-253.1-97.3c-5.7-6-81.1-18.5-86.9-13.4z"/>
						<path id="&lt;Path&gt;" class="s28" d="m132.2 360.7c-13.7 12.2-16.3 245.7-2.5 260.2l270.1 149.4c20 21.9 56.4 21 79.9 12.3 3.1-1.1 25.7-13.4 27.2-14.7l255-151.9c14.6-13-2.9-295.2-16.3-309.3l-250.6-94.2c-4.9-5.3-80.8-19.2-85.8-14.8z"/>
						<path id="&lt;Path&gt;" class="s29" d="m134.7 361.4c-13.4 11.9-16 243.4-2.6 257.5l268.1 148.1c20.2 22.1 56.1 21.1 79.2 12.4 2.7-1.1 25.8-13.7 27-14.8l253.4-150.9c14.1-12.6-3.5-294.5-16.6-308.2l-248.1-91.2c-4.2-4.4-80.5-19.9-84.8-16.1z"/>
						<path id="&lt;Path&gt;" class="s30" d="m137.1 362.1c-13 11.5-15.5 241.1-2.5 254.8l266.1 146.9c20.3 22.3 55.7 21.2 78.5 12.3 2.3-0.9 25.7-13.9 26.7-14.8l251.7-150c13.7-12.1-4.1-293.6-16.8-307l-245.6-88.1c-3.5-3.7-80.2-20.7-83.7-17.5z"/>
						<path id="&lt;Path&gt;" class="s31" d="m139.5 362.8c-12.6 11.2-15.1 238.9-2.5 252.2l264.1 145.6c20.5 22.4 57.5 25.2 77.9 12.3 1.9-0.4 25.6-14.2 26.4-15l250.1-148.9c13.1-11.7-4.7-292.9-17.1-305.9l-243-85c-2.9-3-79.9-21.5-82.8-19z"/>
						<path id="&lt;Path&gt;" class="s32" d="m142 363.4c-12.3 11-14.8 236.7-2.6 249.6l262.2 144.3c20.6 22.7 57.2 25.5 77.2 12.3 1.4-0.3 25.6-14.4 26.2-15l248.3-148c12.7-11.2-5.2-292-17.3-304.7l-240.5-81.9c-2.2-2.3-79.6-22.3-81.8-20.4z"/>
						<path id="&lt;Path&gt;" class="s33" d="m144.4 364.1c-11.9 10.7-14.4 234.4-2.5 246.9l260.2 143.1c20.7 22.8 57 25.6 76.4 12.2 1-0.1 25.6-14.6 26-15l246.6-147c12.3-10.9-5.7-291.3-17.5-303.6l-238-78.9c-1.4-1.4-79.3-22.9-80.7-21.7z"/>
						<path id="&lt;Path&gt;" class="s34" d="m146.9 364.8c-11.7 10.3-14.1 232.2-2.6 244.3l258.2 141.7c20.9 23.1 56.9 25.9 75.8 12.3 0.5-0.1 25.5-14.9 25.7-15.1l245-146c11.7-10.5-6.4-290.5-17.8-302.6l-235.5-75.7c-0.7-0.7-79-23.7-79.7-23.1z"/>
						<path id="&lt;Path&gt;" class="s35" d="m728.8 298.2l-311.6-97.1-267.9 164.4c-11.3 10-13.7 229.9-2.6 241.6l256.3 140.5c21 23.2 56.6 26.1 75.1 12.2l268.7-160.2c11.3-10-6.9-289.7-18-301.4z"/>
					</g>
				</g>
				<path id="&lt;Path&gt;" class="s36" d="m416.5 78.5l-284.8 159.4c-13 7.3-21 20.8-21 35.3v319c0 14.7 8.1 28.3 21.3 35.5l284.8 157.2c13 7.1 28.9 7.1 41.9-0.1l284.9-157.1c13.1-7.3 21.3-20.8 21.3-35.5v-317c0-14.5-8-28-20.9-35.3l-285-161.3c-13.1-7.4-29.4-7.5-42.5-0.1z"/>
				<path id="&lt;Compound Path&gt;" fill-rule="evenodd" class="s37" d="m458.9 71.2l292.7 165.2c13 7.3 21 20.7 21 35.3v324.3c0 14.7-8.2 28.2-21.4 35.5l-292.6 160.9c-12.9 7.1-28.8 7.1-41.7 0l-292.6-160.9c-13.2-7.2-21.4-20.8-21.4-35.5v-326.3c0-14.6 8.1-28.1 21.2-35.4l292.4-163.2c13.2-7.3 29.3-7.3 42.4 0.1zm306 521v-317c0-14.5-8-28-20.9-35.3l-285-161.3c-13.1-7.4-29.4-7.5-42.5-0.1l-284.8 159.4c-13 7.3-21 20.8-21 35.3v319c0 14.7 8.1 28.3 21.3 35.5l284.8 157.2c13 7.1 28.9 7.1 41.9-0.1l284.9-157.1c13.1-7.3 21.3-20.8 21.3-35.5z"/>
			</g>
			<path id="&lt;Path&gt;" class="s38" d="m550.6 33.9c-2.4-4.1-6.7-5.9-9.8-4.2l-290.8 168c-3.1 1.8-3.6 6.5-1.3 10.6 2.4 4.1 6.8 6 9.8 4.2l290.9-168c3-1.7 3.6-6.5 1.2-10.6z"/>
			<path id="&lt;Path&gt;" class="s39" d="m408.4 151c1.2 2.1 3.5 3 5 2.1l196.4-113.1c1.6-0.9 1.9-3.3 0.7-5.4-1.2-2-3.4-3-5-2l-196.4 113.1c-1.5 0.9-1.8 3.3-0.7 5.3z"/>
			<path id="&lt;Path&gt;" class="s40" d="m587.2 19.3c0 5.8-4.7 10.5-10.4 10.5-5.8 0-10.4-4.7-10.4-10.5 0-5.7 4.6-10.4 10.4-10.4 5.7 0 10.4 4.7 10.4 10.4z"/>
			<path id="&lt;Path&gt;" class="s41" d="m605 655.6c-2.4-4.3-7.1-6.2-10.3-4.3l-310.7 179.5c-3.3 1.9-4 6.8-1.5 11.1 2.4 4.2 7.1 6.1 10.3 4.2l310.7-179.5c3.3-1.8 3.9-6.8 1.5-11z"/>
			<path id="&lt;Path&gt;" class="s42" d="m223.8 838.8c1.2 2.1 3.5 3.1 5.1 2.2l198.4-114.3c1.6-0.9 1.9-3.4 0.7-5.5-1.2-2.2-3.5-3.2-5.1-2.3l-198.5 114.4c-1.6 0.9-1.8 3.4-0.6 5.5z"/>
			<path id="&lt;Path&gt;" class="s43" d="m266.4 856.8c0 5.9-4.8 10.8-10.8 10.8-5.9 0-10.7-4.9-10.7-10.8 0-6 4.8-10.8 10.7-10.8 6 0 10.8 4.8 10.8 10.8z"/>
		</g>
	</g>
</svg>