<svg version="1.2" xmlns="http://www.w3.org/2000/svg" viewBox="0 0 1200 1200" width="1200" height="1200">
	<title>v878-mind-24-ai</title>
	<style>
		.s0 { fill: #bd1235 } 
	</style>
	<g id="_Artboards_">
	</g>
	<g id="Graphic Elements">
		<g id="&lt;Group&gt;">
			<path id="&lt;Compound Path&gt;" fill-rule="evenodd" class="s0" d="m791.3 944.6q0 0 0-0.1 0 0.1 0 0.1zm-7.4-6.9c-0.3-0.2-0.5-0.5-0.5-1.2 3 1.3 5.9 2.6 8.9 4 0.7-0.6 0.9-1.2 0.4-1.9-0.9-1.2-1.5-2.8-2.7-3.4-1.7-0.9-2.3-2.5-3.4-3.7-3.5-3.6-7-7.2-10.3-10.9-2.2-2.3-4-4.9-6.1-7.3-1.5-1.6-3.1-3.1-4.6-4.8-1.9-2.3-3.8-4.6-5.7-6.9-4.3-5.1-8.6-10.2-12.9-15.2-1.1-1.3-2.4-2.2-3.5-3.5-2-2.2-3.7-4.6-5.8-6.8-1.2-1.4-2.4-2.9-4.4-3.7-0.8-0.3-2.3-0.9-1.8-2.7 0.1-0.5-1.1-1.3-2.2-1.7 0.1 0.6 0.1 1.2 0.2 2-1.8-0.6-2.6-2-3.4-3.2-1.8-3.1-4.3-5.6-6.6-8.3-2.5-3-5.4-5.6-8.1-8.3-2.6-2.6-5.2-5.2-7.7-7.8-0.7-0.7-1.1-1.6-1.7-2.4-0.2-0.4-0.3-0.9-0.7-1.2-2.7-2.6-5.5-5-8.1-7.7-4.4-4.7-8.7-9.6-13-14.4-2.2-2.6-4.4-5.2-6.6-7.7-3.5-3.9-7.1-7.6-10.6-11.5-3.5-4.1-6.9-8.3-10.4-12.5q-7-8.6-14-17.3c-1-1.2-2-2.6-2.6-4.2q0.6 0.4 1.2 0.9c2 1.6 3.1 4.4 5.7 5.5 0.1 0 0.2 0.1 0.2 0.2 1.1 3.6 4.1 5.6 6.6 8 0.4 0.4 0.7 0.8 0.8 1.2 1 2.7 2.8 4.8 5 6.5 0.8 0.7 1.3 1.6 2 2.5 1.3 1.5 2 3.5 4.3 4.1 0.5 0.1 1 0.9 1.2 1.5 0.8 2.8 2.9 4.4 4.9 6.2 2.3 2.1 4.3 4.4 6.4 6.7 0.3 0.3 0.3 0.9 0.5 1.3 0.2 0.4 0.2 1.1 0.6 1.3 3.7 2.5 5.7 6.6 8.7 9.7 3.1 3.2 6 6.6 9.2 9.7 4.2 4.2 8.7 8.1 13.5 12.6-1-3.6-3.2-5.7-5.2-7.8-2.1-2.2-2.7-5.3-5.3-7.1-2.6-1.7-4.8-3.8-6.3-6.7 0.7 0.3 1.5 0.7 2.5 1.3-0.2-1.7-0.9-2.8-1.9-3.7-4.7-4.5-8.4-9.9-13.7-13.7-0.7-0.5-1.4-1.2-0.5-2.2 0.1-0.1 0.1-0.4 0-0.5-0.9-1.4-1.9-2.7-2.9-4.1-2.8-4.1-7.2-6.9-9.8-11.2-1.2-1.9-2.8-3.5-4.1-5.3-0.3-0.3-0.4-0.7-0.3-1.5 1.2 0.8 2.5 1.6 4.1 2.5 0.2-1.9-0.7-2.8-1.5-3.7-2-2.7-3.9-5.6-6.3-7.9-3.8-3.6-6.5-7.9-9.9-11.7-0.8-0.9-2-1.4-2.9-2.3-0.8-0.8-2.6-1.1-1.9-3 0.2-0.4-0.9-1.2-1.9-2.3 0 1.3 0 2 0 2.6q-0.3 0.1-0.5 0.2-5.6-7.4-11.2-14.8c-0.5 0.2-1 0.4-1.5 0.5-2.6-3.7-5.2-7.5-8-11.5 0.4-0.2 0.9-0.5 1.6-1-1.3-2.1-2.5-4.2-3.9-6.3q-2.9-4.3-5.9-8.5c-1.3-1.8-2.9-3.6-4.3-5.4-0.5-0.7-0.9-1.6-1.4-2.4-0.2-0.5-0.4-1.1-0.8-1.5-1.1-1-2.2-2-3.5-3.2-0.3 0.3-0.8 0.6-1.1 1-7.7 10.2-15.4 20.4-22.9 30.7-5.5 7.5-10.8 15.3-16.2 22.9q-1.5 2.2-3.2 4.1c-0.4 0.5-1 0.9-1.6 1.3q-0.3-0.3-0.6-0.5c1.3-2.1 2.6-4.2 4-6.2 1.6-2.3 3.4-4.4 5-6.7q1.9-2.5 3.8-5c1.2-1.6 1.6-3.4 1.7-5.4 0-1.2 0.7-2.4 1.5-3.4q-0.5 2-0.9 4 0.1 0.1 0.2 0.1c6.9-10.3 13.7-20.6 20.8-31.2-0.3-0.4-0.7-1.1-1.4-2.3 1 0.4 1.5 0.6 2.1 0.9 1.5-0.5 1.8-2.2 2.7-3.1 1-1.1 2.3-1.8 3.7-2.9-2.1-1.5-3.6-2.4-5.3-3.6-1.9 2.7-3.8 5.2-5.5 7.7-2 3.1-3.9 6.2-6 9.2-0.9 1.3-2.6 2-3.6 3.5-1.3 1.9-2.5 3.8-1.9 6.2-1.8 0.5-0.8-1-1-1.5-0.4 0.1-0.6 0.2-0.7 0.3-0.7 1.3-1.2 2.8-2 4-6.9 9.8-13.9 19.5-20.9 29.3-7.8 11-15.7 22-23.5 33.1-5.2 7.4-10.2 15-15.5 22.4-3.8 5.5-7.7 10.8-11.6 16.2-7 9.9-14 19.7-21 29.5-3.2 4.4-6.4 8.8-9.5 13.2-1 1.3-1.7 2.8-2.5 4.2 0.9 1.1 1.8 1.2 2.6 0.4 0.8-0.7 1.4-1.6 2.1-2.4q6.2-8 12.4-16c0.1-0.2 0.4-0.2 1.1-0.5-0.4 0.8-0.6 1.3-0.9 1.8-3.1 4.7-6.1 9.5-9.5 14.2-5.4 7.6-10.9 15.2-16.7 22.6-7.2 9.2-14.5 18.5-22.2 27.4-7.8 9.2-16.1 18-24.1 27-4.6 5.2-9.1 10.6-13.7 15.8q-3.5 4-7.4 7.6c-0.3-1.8 0.8-2.9 1.7-4 2.9-3.6 6-7 9.1-10.5 0.2-0.2 0.5-0.4 0.5-0.6 0.4-3 2.8-4.8 4.4-7.1 0-0.1 0-0.3 0-1-9 8.8-16.8 18.1-25.1 27.6-0.2-2 1-2.8 1.6-4 0.5-1.1 1.3-2.1 2.1-3.4-1.9-0.2-2.6 1.1-3.4 2.1-0.8 1.1-1.6 2.1-2.4 3.2q-0.3-0.2-0.6-0.4 1.9-3.2 3.8-6.4-0.3-0.2-0.6-0.4c-2.8 1.6-3.9 4.9-6.2 7-2.3 2.2-3.9 5-5.6 7.4-0.2-1.1 0.2-2.1 1.2-3.6 4-6 8-12.1 12-18.1 0.1-0.2 0.1-0.5 0.2-1.3-0.8 0.5-1.4 0.8-1.8 1.2-1.1 1.1-2.1 2.4-3.2 3.6-3.1 3.3-6.3 6.4-9 10.1-2.4 3.3-5.3 6.2-8 9.2-0.6 0.7-2.8 1-4.7 0.6 1.2-1.9 2.2-3.9 3.3-5.7q1.8-3 3.8-5.9c1.6-2.5 3.2-4.9 2.9-8.2-0.1-1.1 0.7-2.2 0.8-3.6-2.1 2.4-4.2 4.8-6.3 7.1-6.4 7-12.6 14.1-19.1 21-6.4 6.8-12.9 13.3-19.4 20-1.1 1.2-2.2 2.5-3.3 3.7-0.3 0.3-0.7 0.4-1.4 0.9 0.2-1.1 0.4-1.7 0.4-2.3 0-0.4-0.3-1-0.6-1.2-0.3-0.2-1 0-1.3 0.2-1.1 0.6-2.1 1.4-2.8 2 0-0.4-0.1-1.5-0.2-2.5q-0.4-0.2-0.7-0.4-0.4 1-0.9 2-0.2-0.2-0.4-0.3 0.2-1.8 0.3-3.6-0.3-0.1-0.6-0.3-2 2.4-4 4.8-0.2-0.1-0.4-0.2c0.8-3.5 1.6-7 2.5-10.8-2.3 0.4-2.2 2.7-4 3.5 0.3-6.4 2.9-11.9 4.1-18.1-3 1.6-2.7 5.2-5.6 7 1.6-4.2 4.2-7.3 5.6-11-5 3.6-7.6 9.2-12.4 13.1q0.7-1.4 1.4-2.9-0.2-0.1-0.3-0.3c-0.7 0.5-1.5 0.9-1.9 1.5-1.8 2.3-4.3 3.5-6.6 5-0.4 0.2-0.9 0.3-1.4 0.3-1.1-0.1-2.3-0.2-3.7-0.4-0.3-2.1-0.8-4.5-4-4.3 0-1.3 0-2.3 0-3.4-2.2-2.4-4.9-3-8.2-1.7-0.7-2.1-1.2-3.9-1.9-5.8-0.7 0.1-1.3 0.2-2.1 0.4 0.1-1.5 0.2-2.9 0.3-5-1.6 1.1-2.7 1.9-3.8 2.7-1 0.9-2 1.8-3 2.8-1.3-2.9 0.4-5.9-0.4-9.4-1.4 1.5-2.5 2.8-3.8 4.2-1.1-3.4-0.8-6.6-0.3-9.8 0.6-4.3 1.9-8.4 3.9-12.4 6.5-13.2 14.7-25.4 23-37.5q8.4-12.5 16.9-25c6.9-10.1 13.7-20.4 20.7-30.4 7.1-10.1 14.4-20.1 21.8-30.1 6.9-9.3 13.8-18.6 21-27.7 5.4-7 11.3-13.7 17-20.6 2.4-2.9 4.9-5.7 7.3-8.6 0.6-0.7 0.7-1.9 1.4-2.6 0.6-0.8 1.8-1.1 2.5-1.8 5-5.4 10-10.7 14.8-16.3 1.9-2.1 4-4.2 5.2-6.9 0.7-1.4 2-2.6 3-3.9 0.3-0.4 0.7-0.7 0.9-1.1 3.7-7.1 8.8-13.3 13.4-19.9 2.9-4.1 6.1-8.1 9-12.2 3.7-5.1 7.3-10.4 10.9-15.6 0.5-0.7 1-1.5 1.6-2.1 6.9-6.9 12.2-14.9 18-22.6 8.9-11.7 17.6-23.3 26.4-35q9.3-12.4 18.6-24.8c0.7-1 1.4-2.1 2.1-3.3q-1.1-1.6-2.3-3.3 0.4-0.3 0.8-0.7 0.9 1.6 1.8 3.2c1.5-1.1 1.7-1.7 1.4-3-1.3-4.9-4.6-8.5-7.2-12.5-3.5-5.1-7.2-10.1-10.8-15-4-5.4-7.9-10.8-12-16.1-5-6.4-10.2-12.8-15.3-19.2-2.1-2.7-4-5.5-5.9-8.2-0.5-0.7-0.6-1.5-0.6-2.5 2.3 1.8 4.2 3.9 5.9 6.2 2.3 3.2 5 6.2 7.1 9.5 3.4 5.4 8.1 9.7 12 14.7 3.3 4.3 7 8.3 10.4 12.5 2.1 2.5 4 5.2 6 7.8 0.6 0.7 1.2 1.5 1.9 2.1 1.2 1.1 2.1 2.4 2.9 3.9 1.2 2.2 3 4 4.5 5.9 0.5 0.7 1 1.4 1.4 2.2 0.8 2 3.1 5 5.3 6.6-0.5-1.3-0.8-2.1-1.3-3 1.9-0.2 2 1.7 3.3 2.4 0.4-0.2 0.9-0.6 1.4-0.9-0.7 0.9-1.1 1.7 0.3 2.7 0.5-0.7 1.2-1.3 1.3-1.9 0.1-1.1-0.6-1.6-1.6-0.7 0.6-1 0.1-1.8-0.5-2.6q-2.7-3-5.4-6.1c-0.2-0.3-0.4-0.6-0.8-1.1 0.7-0.1 1.1-0.2 1.5-0.2 0-0.2 0.1-0.4 0-0.5-3.7-5.4-7.5-10.8-11.3-16.1-2-2.7-3.8-5.7-6.2-7.9-7.1-6.4-11.9-14.7-17.9-22-6-7.3-11.5-15-17.3-22.5-1.6-2.1-2.9-4.5-5.4-6-1-0.6-1.4-2.2-2.1-3.3-0.5-0.9-1-1.7-1.8-2.4-0.4 2 0.7 3.5 1.4 5.1 0.7 1.7 1.2 3.4 2 5.5-0.7-0.3-1.3-0.3-1.5-0.6-1.2-1.1-2.3-2.4-3.2-3.7q-3.8-5.3-7.4-10.7c-1.6-2.3-2.9-4.8-4.4-7.1q-2.5-3.9-5.2-7.7c-1.8-2.5-3.2-5.2-3.7-8.3-0.1-0.8-0.5-1.5-0.9-2.1q-4.4-5.9-8.9-11.8-6.8-8.9-13.5-17.7c-9.5-12.4-19-24.7-28.5-37-3.8-5-7.5-10.1-11.3-15.1-1.1-1.4-2.5-2.6-3.8-3.9-1.1 1-1.5 1.9-0.9 3q0.8 1.4 1.7 2.7 7 9.8 13.9 19.6c0.2 0.2 0.2 0.6-0.1 1.2-1.5-1.6-3.2-3.2-4.6-4.9-5.6-7.2-11.1-14.4-16.6-21.6q-6-8-11.8-16.1c-3.5-5-6.9-10-10.3-15.1-5-7.6-10-15.1-14.9-22.8-4.2-6.6-8.2-13.2-12.4-19.9-4-6.6-8-13.2-12.1-19.7-2.8-4.4-5.6-8.8-8.4-13.2-2-3.3-3.9-6.7-5.8-10-0.3-0.5-0.4-1.1-0.2-1.8 0.4 0.2 0.9 0.4 1.2 0.8 4 5.2 8 10.3 10.8 16.4 0.2 0.3 0.3 0.8 0.6 0.9 3 1.4 4.2 4.4 6 6.9 0.1 0.2 0.4 0.3 0.6 0.5 0.1 0 0.2 0 0.7-0.1-6.9-12.9-14.8-25-22.8-37.7 2.3 0.5 2.8 2.1 3.8 3.1 1 1 1.9 2.1 3.2 3.6 0.4-4.1-3.4-5.8-3.7-9.1q2.9 3.2 5.8 6.4 0.3-0.2 0.6-0.4c-0.2-0.5-0.2-1.2-0.5-1.6-3-4.3-6-8.5-9-12.8-0.6-0.9-0.8-2-1.1-3 0.5 0.4 1.2 0.8 1.6 1.3 2.5 3.1 4.8 6.3 7.4 9.3 2.8 3.5 5.8 6.9 8.8 10.4 0.1 0.2 0.5 0.2 0.8 0.4 0.5-1.3-0.3-2-0.9-2.9q-1.1-1.6-2.1-3.3-2-3.6-4-7.1-0.8-1.4-1.5-2.8c-0.4-0.7-0.7-1.6-1.3-2.2-3.8-4.4-6.4-9.4-9.4-14.3-1.2-1.9-0.4-3.7-0.2-5.6q0.5-0.2 0.9-0.4c0.7 0.9 1.4 1.8 2.1 2.7 2.9 3.4 5.6 6.9 8.6 10.1 1.9 2 3.7 4.5 7.1 4.7 0.7 0 1.5 1 2.1 1.7 5.8 6.4 11.4 12.8 17.2 19.2 3.5 3.9 7.2 7.8 10.6 11.8 2.4 2.9 4.4 6.1 6.7 9.1q2 2.8 4.3 5.4c0.9 0.9 1 0.8 3.1 0.3-2.8-4.9-6-9.4-9.5-13.9 4.4 0.6 5.5 1.2 8.2 4 0.9 1.1 1.9 2.3 3 3.2 0.6 0.5 1.5 0.7 2.3 1.1-1.3-1.9-2.5-3.8-4-5.4-4-4.5-8.2-8.8-12.1-13.3-2.8-3.1-5.3-6.6-7-10.6-0.1-0.4-0.4-0.7-0.4-1 0-3.1-2.1-5.1-3.4-7.5-2.7-5.1-5.2-10.2-7.8-15.3-0.1-0.3-0.1-0.7-0.2-1.2 1.3 0 2 0.5 2.3 1.5 0.9 3.4 3.3 5.8 5.1 8.7 1.1 1.8 3.2 2.8 5.6 3.3-2.4-3.5-4.8-6.8-7-10.3-2.2-3.6-4.2-7.4-5.8-11.4 0.5 0.3 1 0.5 1.4 0.9 1.4 1.5 2.7 3.1 4 4.7 0.6 0.6 1.2 1.4 2.2 0.9 1-0.6 1-1.6 0.6-2.6-0.2-0.6-0.4-1.2-0.6-2.2 1.1 0.4 1.9 0.7 2.7 1 0.8-1.8-2.7-2.8-0.4-4.8 4.9 2.8 7.9 8.1 13.3 10-0.4-3.7-3.6-7.3-6.8-7.6-0.2-0.7-0.3-1.9-0.6-2-2.6-0.6-3.6-2.9-5-4.6-2.7-3.4-5.1-7.1-5.8-11.5-0.1-0.4 0-0.8 0-1.4 0.6 0.3 1.2 0.4 1.5 0.7 1.8 1.4 3.6 2.9 5.4 4.5 0.9 0.8 1.8 1.7 2.4 2.8 1 1.8 2.9 2.6 4.5 3.7-1.3-3.5-4.5-5.6-6.8-8.9 2.9 0.3 5.3 0.7 7.3 2.3 1.2 1.1 2.4 2 4.4 1.7 1-0.2 2.1 0.5 3.4 0.9 0.1-2.5-2.4-3.3-2.9-5.2-0.4-1.8-0.8-3.7-1.3-5.7 1.5-0.6 2.9-1.2 4.4-1.8-0.3-1.4-1.6-2.1-2.6-2-1.5 0.1-2-0.8-2.8-1.6 0.3-1.2 0.6-2.4 0.9-3.7 0.5 0 1.1 0.2 1.6 0 3.1-1.2 5.6 0.4 8.1 1.8 0.6 0.4 1.3 0.5 2 0.7q0.1-0.3 0.3-0.6-1.1-1.2-2.3-2.4c0.6-1.3 1.2-2.6 1.9-4.2 2.1-0.1 3.4 2.5 5.7 3.2 2.1 0.7 2.5 4 5.5 4.7 0.1-2-0.9-3.2-1.7-4.5-0.8-1.1-1.8-2.1-2.4-3.6 0.5 0.1 1.1 0.2 1.5 0.5 4.5 2.5 8.9 5.1 13.3 7.7 1.1 0.7 2.1 1.7 3.1 2.6 7.7 7 15.6 13.8 23.2 21 8.3 7.8 16.5 15.7 24.5 23.8 5 5 9.8 10.2 14.5 15.4 5.6 6.4 11.1 12.8 16.6 19.3 0.4 0.4 0.7 1.1 0.9 1.6 0.3 0.7 0.5 1.4 0.9 2 0.4 0.5 1.1 0.8 1.5 1.3 2.1 3.1 4.1 6.3 6.3 9.3 1.2 1.8 2.6 3.4 4.1 4.9 2.5 2.8 5.2 5.4 7.8 8.1 1.2 1.2 2.4 2.3 2.7 4.3 0.2 1.2 1.4 2.2 2.3 3.3 1.9 2.3 3.8 4.5 6 7-2.5 0.8-3.2-1.8-5.1-1.8 0.1 0.5 0 0.9 0.2 1.3 3.9 5.6 7.6 11.4 12 16.6 5 5.9 9.8 12.1 14.5 18.3 2.8 3.6 5.3 7.3 8.1 10.9 1 1.4 2.5 2.4 3.6 3.7 1.9 2.3 3.7 4.7 5.5 7.1q4.2 5.4 8.2 10.9c1.6 2.1 3 4.4 4.7 6.5 1.4 1.9 3.1 3.6 4.5 5.5 4.5 6 8.7 12.3 13.6 18 3.6 4.2 5.7 9.2 9 13.5 5.7 7.5 11.1 15.3 16.6 23q11.8 16.2 23.6 32.3c0.2 0.2 0.4 0.4 0.9 0.8q2.4-2.8 4.8-5.5 0.2 0.1 0.4 0.2c-0.2 0.9-0.3 1.9-0.7 2.8-0.6 1.5-1.3 3-2.1 4.4-0.7 1.3-0.2 2 0.9 2.9 9.4-14 17.1-29 26.5-42.9 9.4-13.9 17.6-28.6 28.1-41.8-0.8 3.1-2.9 5.6-4 8.6 2.7-3.2 5.3-6.4 6.9-10.5q-0.8 0.6-1.5 1.2c3.3-7.9 8.3-14.8 13.8-21.5 1.3 0.7 2.2 0.4 3-1.2 0.7-1.4 2.1-2.6 3.3-3.9 0.3-0.3 0.5-0.7 1-1.3-0.8-0.1-1.3-0.2-2.1-0.4 1.3-3.5 3.7-6.3 5.8-9.2 0.4-0.6 1.1-0.9 2.1-1.6-0.4 3.3-3.7 4.6-3.6 8.2 2.3-3.2 4.1-5.8 6-8.4 0.2 0.5 0.4 1 0.7 2 4.9-6.3 9.5-12.3 14.2-18.4q-0.2-0.2-0.4-0.4-0.8 0.6-1.7 1.2c0.2-2.2 6.7-10.4 10-12.9q0 0-0.1 0c2.4-3.2 4.6-6.4 7-9.5 1.2-1.6 2.6-3.1 4.3-4.3q-2 2.7-4 5.5 0.3 0.2 0.6 0.4c2.5-2.5 4.6-5.4 6.8-8.2l-0.1 0.1q2.4-3 4.8-5.9c-0.7 0.1-1.4 0.3-2.7 0.7 6.2-7.9 12.4-15 19-22.1 0.3 0.5 0.6 0.8 1 1.5 1.6-1.7 3.2-3.5 4.7-5.2q-0.2-0.2-0.4-0.4c-0.9 0.8-1.8 1.6-2.9 2.5 0.6-1.8 16.6-19.8 23-26 0.2 0.3 0.3 0.6 0.6 1.1 0.8-1 2.8-1.1 1.5-3.2-0.4-0.6 3-4 3.5-3.6 1 0.8 1.4 0 1.8-0.5q3.9-4.4 7.6-8.7c0.4-0.5 0.7-1.2 0.8-1.9 0.2-0.7 0.9-0.8 1.1-1.2 1.6-1.8 4.3-2.5 5.2-5 0.2-0.6 0.9-1.2 1.5-1.5 2.7-1.4 4.3-3.5 5-6.2 1.1-0.7 2.5-1.1 3.2-2 1.1-1.6 2.7-1.3 4.1-1.5 0.9-0.1 1.5 0.5 1.5 1.4 0 1.6 0.4 3.3-0.9 4.7-0.4 0.4-0.5 1-0.9 1.8 2.4-0.3 1.9-3.5 4.3-3.6-0.4 2.1-3.5 3.2-1.7 6 7.5-7.8 14.8-15.5 22.2-23 7.4-7.6 14.2-15.8 22.5-23.4-0.1 2.1-1 3-1.7 3.8-2.7 3.1-5.5 6-8.3 8.9-0.3 0.3-0.7 0.6-0.7 0.9-0.2 2.2-2 3.2-3.1 4.8-0.2 0.4-0.5 0.7-0.6 1.2 8.2-6.9 15.2-14.9 22.6-22.6q0.3 0.2 0.6 0.4c-1.1 1.7-2.1 3.4-3.3 5.3 3 0.1 3.2-3.3 5.7-4.3-0.8 2.2-2.8 3.6-3.1 5.8q0.3 0.2 0.6 0.3 5.3-6.1 10.7-12.4c0 1.3-0.8 2.3-1.5 3.3-3.6 5-7 10-10.5 15 0 0.1 0 0.4 0 0.7 0.4-0.1 0.8-0.1 1-0.3 3.3-3.1 6.6-6.2 9.7-9.5 2.6-2.7 4.9-5.6 7.4-8.5 1.5-1.8 3.2-3.1 6-2.6-0.6 2.6-2.4 4.5-3.7 6.7-1.3 2.1-2.9 4.1-4.1 6.3-0.5 0.9-0.3 2.2-0.6 3.3-0.2 0.8-0.3 1.7-0.8 2.3q-6.2 9.8-12.5 19.5c-2.1 3.2-4.1 6.5-6.3 9.7-1 1.4-2.3 2.6-3.4 4-0.9 1.2-1.8 2.4-2.6 3.7-0.3 0.6-0.1 1.4 0.2 2.2 3.3-2.5 5.7-5.8 8.4-9 0.9 2.2 0.5 4.1-0.6 6-0.9 1.6-1.6 3.4-2.4 5.1 1.1-1.2 2.3-2.2 3.2-3.5 2.2-3.5 4.1-7.3 6.5-10.7 2.5-3.6 4.9-7.4 9.3-9.2 1-0.4 1.7-1.6 2.5-2.3 3.6-3.3 7.1-6.5 10.9-9.9 0.7 1.2 0.4 1.7-0.2 2.3-1.8 1.6-3.5 3.3-5.2 5-1.2 1.3-1.5 3-1.2 4.9 3.7-5 8.1-9.1 12.6-13.1q0.3 0.2 0.5 0.4c-0.3 0.6-0.6 1.3-0.9 1.9-0.6 0.9-1.3 1.7-1.8 2.6-0.2 0.5-0.2 1.3 0 1.8 0.2 0.3 1.1 0.3 1.6 0.2 0.5-0.1 1-0.5 1.7-0.9 0 0.8 0 1.5 0 2.1 1.5 0.4 1.7-2.6 3.6-0.9q-2.3 5.6-4.6 11.3c2.9-1 4.3-2.9 4.5-5.6 0-0.3 0.4-0.6 0.6-0.9 0.3-0.4 0.6-0.7 0.8-1.1q2.8-7.1 9.8-10.4c0.1-0.1 0.3 0 0.7 0.1-0.8 4.4-3.9 7.8-5.4 11.9 2.4-1.3 2.9-4.1 4.9-6.1 0.7 1.7 0.8 3.3 0.4 4.8-0.7 2.9-0.7 2.9 0.1 7.3 1.1-1.2 1.9-2.4 2.9-3.2 1.2-0.9 2.6-1.3 3.9-2 0.9 0.9 1.8 1.9 3 3.2 0.2-1.2 0.5-2 0.5-2.7-0.1-2 0-2.1 1.8-2.1 0.3 0 0.6 0 0.8 0 0.3-0.1 0.6-0.1 0.7-0.1 2.4 2.8 1.6 5.9 1.1 9q0.3 0.1 0.6 0.1 0.8-0.9 1.5-1.8c1.2 0.2 2.2 0.4 3.6 0.7-0.4 1.6-0.8 3.3-1.2 5-0.3 1.6-2.7 2.4-1.8 4.7 2.2-0.8 3.1-2.9 4.8-4.9 0 1.2 0 1.8-0.1 2.4-1.3 7.4-3.8 14.3-7.3 21-4.9 9.2-9.2 18.7-14.1 28-4.3 8.2-8.7 16.3-14.3 23.8-2.4 3.2-4.3 6.8-6.5 10.2-1.1 1.6-2 3.3-3.9 4.4-1.5 0.8-2.3 2.7-3.5 4.2-3 3.8-6.1 7.6-8.2 12.1-0.7 1.5-1.7 2.8-2.5 4.2-0.1 0.2-0.2 0.4-0.3 0.5-3.5 2-4.7 5.8-7.2 8.6-0.1 0.1-0.3 0.1-0.9 0.3 0.3-1.3 0.5-2.4 0.8-3.9-1.9 1.8-3.6 3.2-4.9 4.8-3 3.7-5.7 7.6-8.5 11.4-3.1 4.1-6.4 8.2-9.5 12.3-2.2 3-4.2 6.2-6.4 9.3-3 4.1-6.1 8.1-9.2 12.2-6.5 8.5-13 17-19.6 25.3-2.1 2.7-4.8 5.1-7 7.7-6 7.3-11.9 14.7-17.9 22q-7.9 9.7-15.7 19.4-9.2 11.6-18.5 23.1-2.1 2.7-4.2 5.5c-0.7 1-1.8 1.7-2.6 0.9-1-1.1-1.9-0.7-3.1 0 1.7-2.8 3.2-5.1 4.6-7.5 0.3-0.4 0.7-0.8 0.6-1.2-0.3-3 1.8-4.6 3.6-6.5 0.9-1 1.6-2.2 2.3-3.4 0.1-0.2-0.4-0.6-0.6-0.9-3.8 3.1-36.8 46.9-38.8 53 3.1-3.7 6.7-6.8 8.7-11.3 0.8-1.8 1.6-3.6 3.4-4.9 1-0.8 1.3-2.6 2.4-3.6 2.3-2.3 3.3-5.5 5.5-7.8 2.2-2.4 4-5.2 6.2-8 0.7 1.9-0.7 2.5-1.1 3.5-0.5 1.1-1.1 2.1-1.7 3.1-0.6 1.1-1.2 2.1-1.8 3.1 0.4 0.7 0.7 1.3 1 1.8-9.3 11.4-19.7 21.7-27.8 33.9q-0.4 0.6-0.3 1.5c4.7-3.9 8.1-8.8 12.2-13.3 4-4.4 8-8.8 12.5-12.9-0.3 0.5-0.5 1.2-0.9 1.7-4.3 5.4-8.5 10.8-12.8 16.1-3.3 4.1-6.8 7.9-10 12-3.3 4.3-6.3 8.8-9.5 13.2-2.9 3.8-5.9 7.6-8.8 11.5q-1.3 1.7-2.7 3.4c-0.6 0.7-1.2 1.3-1.9 2q-0.3-0.2-0.5-0.4c0.7-1.7 1.4-3.5 2.2-5.7-4.7 2.9-6.3 8.3-10.7 11.3 0.9 1.5 1.8 3 2.8 4.4q5.2 6.8 10.6 13.5c3.3 4 6.7 7.9 9.9 12 3.9 5 7.6 10.2 11.4 15.3 0.6 0.8 1 1.8 1.6 3-1.8-0.7-3.1-1.3-4.4-1.8 1.2 1.7 2.6 3.4 3.8 5.2 3 4.5 6 9 8.9 13.5 6 9.4 11.8 18.8 18.8 27.5 5.4 6.7 10.3 13.7 15.4 20.6q7.8 10.6 15.5 21.3c3.3 4.6 6.5 9.3 9.7 14 1.5 2.1 3 4.3 4.6 6.3 0.3 0.5 1.5 0.8 1.5 0.9-0.6 2.2 1.3 3.1 2.2 4.5 1 1.6 2 3.1 3.2 4.5 2 2.5 4.2 5 6.3 7.5 0.6 0.7 1.3 1.5 1.5 2.4 0.6 2 1.8 3.4 3.4 4.6 1.6 1.2 3.1 2.6 3.5 4.7 0.1 0.6 0.5 1.1 0.9 1.5 1.7 2.3 3.3 4.7 5.3 6.8 3 3.3 5 7.2 7.9 10.6 2.7 3.3 5.2 6.9 7.8 10.4 2.7 3.6 5.3 7.2 7.9 10.7 6.7 9 13.2 17.9 19.9 26.8 7.2 9.5 14.6 18.8 21.6 28.3 6.8 9.2 13.2 18.6 19.8 27.9 1.7 2.5 3.7 4.7 5.5 7.1 0.4 0.6 0.8 1.2 1.1 1.9-1.9-1.9-4.2-2.9-7-3.1-0.6 2.4 1.8 3.2 2.4 4.9-1.1-0.1-2.3-0.2-3.8-0.4-1.5-2.1-3.4-4.2-6.2-5.2 0.2 2.1 1.5 3.5 2.6 5 1.5 2.1 3.2 4.2 4.9 6.2 1.1 1.2 1.9 2.3 1.4 4.3-0.2 1 0.7 2.6 1.5 3.6 3.6 4.8 7.3 9.5 11 14.2 1.2 1.6 2.6 3.1 3.9 4.7 0.2 0.2 0.4 0.4 0.5 0.7 0.7 1.8 1.3 3.6 2.2 5.8-1-0.7-1.8-1.2-2.5-1.7 0.7 2.5 0 5.3 2.3 7.2 1.6 1.5 0.9 3.4 1.3 5.2-3.7-4.9-8.5-8.7-13.5-12.5-0.5 0.1-1.3 0.3-2.5 0.7 1.6 2.8 3.7 5.1 5.7 7.6q-0.9-0.4-1.8-0.8-0.1 0.1-0.3 0.2c1.8 2 3.7 3.9 5.4 6 1.8 2.1 3.5 4.3 5.2 6.4q-0.2 0.2-0.4 0.4c-1.9-1.8-3.8-3.5-5.6-5.4-2.2-2.4-3.9-5.2-6.5-7-2.1-1.6-4.4-2.8-5.8-5.2-0.5-0.8-1.5-1.4-2.3-2-0.6-0.4-1.2-0.5-1.9-0.7q-0.1 0.2-0.3 0.4c0.3 0.6 0.5 1.3 0.9 1.8 1.9 2.4 3.7 4.9 5.7 7.3 1.4 1.7 1.4 1.6 3.5 1.5 0.5 0.8 1.2 1.5 1.6 2.4 0.3 0.7 0.4 1.6 0.6 2.5 0.9 0.5 1.9 1.1 2.9 1.7q-0.1 0.3-0.3 0.6-1-0.3-2.1-0.7-0.1 0.2-0.3 0.4c1.5 2 3.1 4.1 4.7 6.3-1.5 0.6-2-2.1-3.6-0.6 0.4 1 0.7 2.1 1.2 3.5-2.4-0.8-3.8-4.8-6.7-1.3-2.2-0.8-3-4.5-6.5-3.2 0.5 0.9 0.9 1.7 1.4 2.5 0.6 1.1 0.9 2.5 2.7 1.3 0.2-0.2 1 0.5 1.6 0.8-2.1 1.9-2.7 3.6-1.4 5.1 2.1 2.8 4.4 5.5 6.8 8.4 0.7-0.3 1.3-0.6 2.1-0.9 0.3 0.5 1 1.3 0.9 1.5-1.4 2.2 0.2 2.9 1.6 3.8 0.7 0.4 1.1 1.1 1.7 1.7-1.4 1.3-2.2 0.3-3-0.2-0.9-0.4-1.9-0.7-3-1.1-3-4.9-7.5-8.5-13-11.1 0.4 0.6 0.7 1.3 1.2 1.9 1 1.1 2 2.3 3.2 3.3 1.6 1.4 2.3 3.1 2.2 5.6-0.6-0.6-1-1.1-1.5-1.5-1.6-1.4-3-3.1-5.2-4-1.3-0.5-2.3-1.7-3.3-2.8-0.8-0.9-1.6-1-2.4-0.1-1-1.1-2-2.2-3-3.2-0.7-0.7-1.5-1.5-2.3-1.7-2.2-0.4-3.6-1.9-5-3.2-2.4-2.3-4.9-4.4-7.3-6.7-1.3-1.3-2.6-2.7-4-4.1q-4.8-4.9-9.7-9.9c-0.3-0.2-0.6-0.4-1-0.7q-0.8 0.5-1.4 0.9c0 0.2 0 0.5 0.1 0.6 0.9 1.7 2.4 2.8 3 4.9 0.2 1 1.9 2.4 2.9 2.4 1.7 0 2.4 1 3.3 1.9 4.5 4.4 9.1 8.7 13.5 13.1 1 1 2.1 1.9 2.1 3.7 0 0.8 1.1 1.7 1.9 2.3 3.8 2.8 7.7 5.4 11.6 8.2 0.6 0.5 1.2 1.1 1.8 1.7q-0.2 0.3-0.3 0.5c-1.9-0.6-3.9-1.2-5.8-1.9-1.9-0.7-3.8-1.5-5.7-2.3q-0.2 0.3-0.3 0.6c1.3 1.4 2.8 2.8 4 4.3 1.2 1.3 2.3 2.8 3.5 4.4-1.8 0.4-3.1-0.3-4.5-0.9-1.9-0.9-3.9-1.7-5.8-2.5-0.8-0.4-1.5-0.9-2.1-1.4-1.3-1.1-2.5-2.3-3.8-3.5q-0.7-0.7-1.4-1.3c-0.5-0.5-0.9-1.1-1.4-1.4-2.3-1.2-4.4-2.5-6.1-4.3-0.3-0.3-0.8-0.4-1.2-0.6q-0.2 0.3-0.4 0.5c0.5 0.7 1 1.5 1.6 2.1 2.6 3 5.3 5.9 7.9 8.9 1.1 1.3 2.1 2.6 1.8 4.6-0.4 1.9 1.4 2.8 2.8 3.3 1.9 0.7 2.7 2.4 4.4 4-1.8-0.3-3.1-0.5-4-0.6-5.5-4-10.8-7.8-16.1-11.6-0.3-0.2-0.9 0-2 0 0.8 0.9 1.2 1.6 1.7 2 2.4 1.9 4.9 3.8 7.3 5.7 0.8 0.7 1.4 1.7 2.3 2.8-2.3 0.7-3.6-0.4-4.8-1.5-5.9-5.3-12.2-10.1-18.7-14.6-0.3-0.3-0.8-0.4-1.5-0.6 0 2.2 2.2 2.5 2.8 3.9 0.6 1.4 1.1 2.7 1.8 4.5 0.7-0.9 1.1-1.3 1.4-1.7q3.8 3.1 7.6 6.1c-1.9 0.3-3.2-0.7-4.5-1.6-0.5-0.4-1.3-1.1-1.6-0.9-1.9 0.8-2.6-0.6-3.6-1.6-1.3-1.3-6.8-4.3-9.2-4.8 1 1 1.5 1.8 2.3 2.2 3.8 2.1 5.5 6 8 9.2 0.4 0.6 0.5 1.3 1 1.8 1.6 1.4 1.9 3.2 1.3 5.6-1.4-1-2.8-1.9-4.2-2.9-3.6-2.9-7.2-5.7-10.9-8.6-4.1-3.2-8.2-6.4-12.2-9.7-6.5-5.3-12.9-10.5-19.2-15.9-5-4.5-9.8-9.3-14.7-13.9-0.5-0.4-1.1-0.9-1.4-1.5-0.7-1.5-1.9-2.5-3.2-3.5-2.8-2.3-5.4-5-7.9-7.6-3.3-3.3-6.5-6.6-9.7-10-2.1-2.2-4.1-4.5-6.3-6.8-5-5.3-10.2-10.5-15.1-16-6.1-6.8-11.9-13.9-17.9-20.8-2.5-2.9-5.2-5.8-7.7-8.7-1-1.1-1.9-2.4-3.1-3.8 1.5 0.5 3.7 2.2 4.8 3.6 0.1 0.1 0.1 0.4 0.3 0.5 2 1.3 3 3.4 4.5 5.1 1.5 1.8 3.3 3.2 5 4.8 0.4 0.4 0.9 0.8 1.1 1.3 1 2.9 3.1 4.9 5.5 6.8 1 0.8 1.8 2 2.6 3.1 1 1.4 1.9 2.8 3.8 3.3 0.6 0.2 1.3 1.1 1.4 1.7 0.5 2.5 2.4 3.7 4 5.1 1.9 1.7 3.5 3.5 4.9 5.5 1.6 2.2 3.5 4.3 5.9 5.9 1.7 1.2 3 3.2 4.4 4.9 4.8 5.5 10 10.8 15.5 15.6 8 7.1 16 14.2 24.1 21.3 0.2 0.3 0.7 0.5 0.7 0.8 0.2 2.6 2.4 3.4 4 4.7 4.1 3.6 8.3 7 12.5 10.4q1.6 1.2 3.3 2.3c0.4 0.2 1 0.1 1.7 0.2-0.1-2.5-2.5-3.2-3.9-5.5 1.2 0.3 1.8 0.4 2.2 0.7 2.4 1.6 4.7 3.4 7.1 5 0.5 0.4 1.1 0.6 1.9 1-0.7-1.8-10.1-10.4-15-14-0.5-0.3-1.1-0.4-2.2-0.8 1.4 3.2 3.8 4.8 5.3 7.2-5.9-3.8-10.6-8.9-15.8-13.3q0.1-0.3 0.3-0.6 2.8 1.6 5.5 3.2 0.2-0.2 0.4-0.4c-0.1-0.3-0.2-0.7-0.4-0.9-1.6-1.4-3.3-2.6-3.6-5-0.1-0.6-0.9-1.2-1.4-1.7-2.7-2.8-5.9-5.1-7.6-8.7-0.3-0.7-0.9-1.3-1.6-1.7-3.9-2.1-6.3-5.9-9.4-8.9q-0.8-0.8-1.7-1.6c-0.1-0.1-0.4-0.2-0.5-0.1-1.1 1.3-2.9-1.2-4 1.2-0.1 0.3-0.1 1.1-0.2 1.9q-3.7-3.4-7.4-6.8zm-499.2-690.5q-0.1 0-0.1-0.1 0.1 0 0.1 0.1zm65.9 42.2q0 0 0.1 0.1 0 0 0.1 0.1-0.1-0.1-0.1-0.2-0.1 0-0.1 0zm7.6 9.2c-0.1-2-1.6-3-2.6-4.1-1.5-1.8-2.4-4.1-4.8-4.9 1.1 2.8 5.3 8 7.4 9zm336.9 70.7q0 0 0-0.1v0.1q0 0 0 0zm22.8-28.5q0 0 0 0 0 0 0 0 0 0 0 0zm-4 5.9q0.3 0.2 0.5 0.4c1.3-1.6 2.6-3.2 3.8-4.8 0.2-0.3-0.2-1-0.3-1.5q-2 3-4 5.9zm23.3-27.8q0.1-0.1 0.2-0.1 0-0.1 0-0.2 0 0.1-0.1 0.1 0 0.1-0.1 0.2zm6.8-8.4c-0.4 0-0.7-0.1-0.7 0-1.8 2-3.6 4-5.3 6.2-0.4 0.5-0.4 1.2-0.6 1.9 2.3-2.6 4.7-5 6.6-8.1zm120.9-60.9q-0.1 0.1-0.2 0.2 0 0.1 0 0.1 0 0 0 0 0.1-0.2 0.2-0.3zm-4.8 7.3c2-1.9 3.9-3.9 4.7-6.6 0.1-0.1 0-0.2-0.1-0.4-1.9 2.1-3.7 4.2-4.6 7zm-146 380.4q-0.1-0.1-0.1-0.2-0.1 0-0.1 0 0 0.1 0 0.1 0.1 0 0.2 0.1zm-3-3.1c0.5 1.7 1.6 2.4 2.8 2.9-0.1-1.6-1-2.4-2.8-2.9zm194.4 274.4q0.1 0 0.1 0-0.1 0-0.1 0zm-384.9-298.3c-0.2 0-0.4 0-0.4 0-0.4 3-2.3 5.2-4.4 7.3-1.1 1.1-2 2.7-2.3 4.2-0.2 0.7 0.3 1.7-0.4 2.3-0.5 0.5-1.3 0.7-2.1 1 0.1 0.4 0.2 0.8 0.2 1.2-2.2 0-2.6 1.8-3.3 3 0.5 0.7 0.9 1.4 1.4 2 1.7-1.3 12.1-14.7 13.6-17.6-0.7-1.1-1.5-2.3-2.3-3.4zm-108.1-295c-0.3-0.3-0.5-0.7-0.8-1.1-3.8-4.1-7.6-8.2-11.3-12.4-0.9-1.2-1.7-2.6-2.3-4-0.7-1.8-2.1-2.8-3.9-3.5 1.7 4.8 5 8.5 8 12.4 3 4.1 6.1 8.1 9.3 12.2 0.4-1.4 0.7-2.4 1-3.6zm1.3 10.4c0.8 1.6 1.5 3.1 2.4 4.6 0.9 1.3 1.9 2.6 3.1 3.7 1.1 1.1 1.6 3 3.9 3.4-0.4-1-0.6-1.6-0.9-2.1-1.1-2.1-2.2-4.1-3.2-6.2-0.5-1.1-0.7-2.4-1.3-3.5-1.1-1.8-1.7-1.8-4 0.1zm458.7-42.7c-2.6 1.5-4 3.6-5.4 5.5-3.1 3.8-6 7.8-8.9 11.7 0 0 0.1 0.2 0.1 0.3q1.2 0.1 2.5 0.1c2.3-3.5 4.5-7 6.8-10.4 0.8-1.2 1.6-2.4 2.8-3.2 1.3-0.9 1.7-2.1 2.1-4zm-25.5 29.2c2.4-1.9 4.8-3.7 7.1-5.7 1.2-1 1-1.5-0.6-2.7-2.9 1.4-5.1 4-6.5 8.4zm-6.9 650.4c-1.2-2.7-7.7-8.8-9.8-9.5 1.3 3 6.1 7.8 9.8 9.5zm-171.3-558.1q0.5 0.3 0.9 0.6 2.2-3.1 4.5-6.2c0.5 0.2 1 0.3 1.7 0.5 0.4-0.8 0.8-1.6 1.3-2.6-0.8 0.4-1.1 0.6-1.9 0.9 0.6-2.1 2.4-3.3 2.1-5.4q-4.3 6.1-8.6 12.2zm-372.7-157.8c-1.4-3.7-6.1-9.4-8-10 0.8 2 5.9 8.6 8 10zm64.7 729.3c2.9-3.1 5.8-7.5 6.1-9.1-2.2 1.6-5.6 6.6-6.1 9.1zm161.1-369.4c-1.3 2.4-0.6 3.8 2.6 5.8 1-2.8-1.5-3.7-2.6-5.8zm330.7 337.4c-0.2-1.6-0.9-2.6-2-3.2-0.9-0.5-1.2-2.2-2.9-1.6 1.3 3.3 2.4 4.4 4.9 4.8zm-174-348.9c1.4 1.2 2.6 2.3 4.3 3.8-0.3-2.7-1.8-3.9-2.9-5.6-0.6 0.7-0.9 1.2-1.4 1.8zm67.7-287.4c2.5-2.4 5.1-4.7 6.8-7.7q-4 3.2-6.8 7.7zm161.5 637c-0.8-3.3-1.9-4.6-4.3-4.8 1.5 1.8 1.9 4 4.3 4.8zm-23.7-743.7c2.4-1.5 5.1-5.2 5.4-7.5-2 2.6-4 4.9-5.4 7.5zm-355.6 400.4c0.6 0.9 1.2 1.8 1.8 2.8 0.6-0.8 1.2-1.5 1.8-2.3-0.8-0.9-1.4-1.6-2.1-2.3-0.4 0.3-0.8 0.5-1 0.8-0.2 0.3-0.3 0.7-0.5 1zm377.3 358.5c0 1.8 0.6 3.1 1.9 3.3 1.2 0.2 1.7-0.5 1.8-1.6-1.4-0.6-2.5-1.1-3.7-1.7zm-0.9 6.9c1.2 0.9 1.9 1.5 2.6 1.9 0.3 0.1 1 0 1.2-0.3 0.3-0.2 0.3-0.9 0.1-1.3-0.9-1.4-2-0.9-3.9-0.3zm-34.1-8.1q0.3-0.3 0.5-0.5c-0.6-2.5-1.6-3.4-4.5-3.8 1.5 1.6 2.8 2.9 4 4.3zm-345.6-357.6c0 0.3-0.3 0.6-0.2 0.8 1.1 1.4 2.2 2.9 3.7 4.8 0.5-3.3-2.5-3.7-3.5-5.6zm375.7 363.7c-1.2-2.5-3.6-2.4-5.2-3.8 0.4 1.7 0.4 1.7 5.2 3.8zm-220.9-363.8c-0.4-1.8-1.5-3.1-3.3-4.5 0.3 2.6 1.7 3.6 3.3 4.5zm145 346.8c0.5 1.9 1.8 3 4 3.7-1-2.1-2.2-3.2-4-3.7zm-3.5-4.9q-0.3 0.3-0.5 0.5c0.4 2 0.4 2 2.6 2.2-0.8-1.1-1.5-1.9-2.1-2.7zm-183.8-192.7q0.3-0.2 0.7-0.3c0.5-1.5-0.6-2-2.1-2.2q0.7 1.2 1.4 2.5zm28.8 34.8c-0.3-2-1-2.8-2.5-3.2 0 1.6 1.1 2.1 2.5 3.2zm14.6-200.4c-1.3 0.2-2.4-0.1-2.6 1.2-0.1 0.3 0.2 0.7 0.4 0.7 1.2 0.4 1.6-0.4 2.2-1.9zm-3.7 4.5q-0.3-0.3-0.7-0.5c-0.5 0.6-1.3 1.1-0.9 2.9 0.7-1.1 1.2-1.7 1.6-2.4zm35.5-240.1q-0.3-0.2-0.7-0.5c-0.3 1.1-1.7 1.6-1.6 3.6 1-1.3 1.7-2.2 2.3-3.1zm-19.8 24.9q0.2 0.2 0.5 0.5c0.4-0.5 0.8-1 1.1-1.5 0.1-0.1-0.1-0.4-0.4-0.9-0.5 0.8-0.9 1.4-1.2 1.9zm28.3-35.5q-0.3-0.2-0.5-0.4-0.9 1-1.7 2 0.2 0.1 0.5 0.3 0.8-0.9 1.7-1.9zm41.2 144.3q-0.2-0.2-0.5-0.4-0.7 0.9-1.3 1.9 0.2 0.1 0.4 0.3 0.7-0.9 1.4-1.8zm-94.3-74.2q0.2 0.2 0.5 0.5 0.4-0.7 0.8-1.4-0.1-0.1-0.3-0.2-0.5 0.5-1 1.1zm16.2-21.8q-0.4-0.3-0.7-0.6c-0.2 0.3-0.4 0.7-0.5 1-0.1 0.3-0.1 0.7-0.2 1q0.2 0.1 0.4 0.1 0.5-0.7 1-1.5zm0.5-1.3q0.2 0.2 0.4 0.3 0.6-0.9 1.2-1.7-0.2-0.2-0.4-0.3-0.6 0.8-1.2 1.7z"/>
			<path id="&lt;Path&gt;" class="s0" d="m696.7 842.8c1.5 0.8 2.4-0.4 3.3-1.4 5.4 6.4 10.7 12.7 16.5 19.6-1.5-0.5-2.4-0.7-3.6-1 0 0.9 0 1.6 0 3-5.6-7-10.9-13.6-16.2-20.2z"/>
			<path id="&lt;Path&gt;" class="s0" d="m608.5 726.6c0.9-0.6 1.8-1.1 3-1.8 2.4 3.2 4.8 6.5 7.4 9.7 2.5 3.1 5.1 6.1 7.7 9.1q-0.2 0.2-0.4 0.5c-0.9-0.3-1.7-0.5-2.8-0.9 0 1 0 1.7 0 3.1-5.2-7-10.1-13.4-14.9-19.7z"/>
			<path id="&lt;Path&gt;" class="s0" d="m424 462.6c-0.4 0-0.9 0.1-1 0-1.6-2-3-4-4.5-6.1-1.6-2.2-3.1-4.5-4.8-6.7-3.1-3.8-6.4-7.4-9-11.7-1.8-2.9-4.2-5.5-6.4-8.2-2.5-3.1-5.1-6.2-7.7-9.4-0.2-0.3-0.3-0.6-0.8-1.6 0.9 0.6 1.4 0.7 1.7 1.1q10.2 11.2 18.9 23.6c2.6 3.7 5.6 7.2 8.2 10.8 1.9 2.6 3.6 5.5 5.4 8.2z"/>
			<path id="&lt;Path&gt;" class="s0" d="m811.8 963.8c-5.4-5-10.2-9.5-15.1-14.1q0.1-0.2 0.3-0.5 1.7 0.4 3.4 0.8c0.8 0.2 1.6 0.5 2.4 0.6 1.3 0.3 2.3 0.9 2.6 2.1 0.3 1.5 1.4 2 2.5 2.9 1.4 1 2.7 2.5 3.6 4 0.5 0.9 0.2 2.3 0.3 4.2z"/>
			<path id="&lt;Path&gt;" class="s0" d="m513.2 811.8c-1.6 1.8-3.2 3.6-4.6 5.4-1.1 1.4-2 2.9-3 4.3-4.3 6-8.7 12-12.9 18.1-2 2.8-3.8 5.8-5.7 8.7-0.4 0.5-0.8 0.9-1.6 1.7 1.9-5.7 23.8-36.5 27.3-38.6q0.3 0.2 0.5 0.4z"/>
			<path id="&lt;Path&gt;" class="s0" d="m904.3 886.4c-0.7-1.1-1.1-2.2-1.8-3-1-1.2-1.2-2.4-0.5-3.7 2.8 2.5 16.7 21.7 18.5 26-0.9-0.6-1.5-0.8-1.8-1.3-2.7-3.9-5.5-7.8-8.2-11.8-1-1.4-2-2.9-3.2-4.1-0.9-0.9-2.2-1.5-3-2.1z"/>
			<path id="&lt;Path&gt;" class="s0" d="m463.5 525.8c-7.6-11.9-15-23.4-22.3-34.9q0.1-0.1 0.2-0.3c0.3 0.3 0.8 0.5 1.1 0.8 3.9 5.4 7.8 10.7 11.1 16.6 1.7 3 3.8 5.7 5.8 8.6 0.9 1.2 3.9 7.4 4.1 9.2z"/>
			<path id="&lt;Path&gt;" class="s0" d="m632.9 768.7c2.6 1.1 4.1 3.1 5.7 5 0.9 1 1.4 2.7 3.4 1.9 0.2-0.1 0.9 0.6 1.2 1 1.9 2.7 3.7 5.4 5.6 8.1 0.7 1 1.3 1.9 2.3 3.4-0.9-0.2-1.3-0.2-1.5-0.4q-8.4-9.5-16.7-19z"/>
			<path id="&lt;Path&gt;" class="s0" d="m843 809.8c1.6-0.3 2.3 1.1 3.2 2 1.7 1.8 3.3 3.7 5 5.5 0.5 0.4 1.2 0.9 1.8 0.9 2.3 0 3 1.7 3.7 3.6-0.7-0.6-1.4-1.2-2.3-1.9-0.3 1.8 1.4 2.8 1.4 4.7-5.1-4.5-8.8-9.8-12.8-14.8z"/>
			<path id="&lt;Path&gt;" class="s0" d="m861.2 832.1c1-0.6 1.8-1.1 2.9-1.7 2.6 4 7 6.6 9.4 11.8-2.7-1.3-3.8-3.3-5.2-5-1.3-1.7-2.7-3.3-4.3-4.9 0.2 2.4 2.3 3.9 3.3 6-2.7-1.3-4.1-3.9-6.1-6.2z"/>
			<path id="&lt;Path&gt;" class="s0" d="m826.6 789.8c3.4 0.7 4.5 4.8 8.2 4.6-0.5 0.7-0.8 1.1-1.2 1.6q2.3 3.2 4.5 6.3c-2-0.6-10.2-9.8-11.5-12.5z"/>
			<path id="&lt;Path&gt;" class="s0" d="m424 462.6c0.4 0.6 0.8 1.2 1.3 1.7 1.4 1.4 2.8 2.6 3.5 4.5 0.4 1.1 1.5 2 2.3 2.9 1.2 1.5 2.5 3 3.7 4.5 0.5 0.6 0.8 1.4 1.2 2.1q-0.3 0.2-0.6 0.4c-1.8-1.8-3.8-3.6-5.3-5.6-2.1-2.7-3.9-5.5-5.7-8.4-0.3-0.5-0.3-1.4-0.4-2.1 0 0 0 0 0 0z"/>
			<path id="&lt;Path&gt;" class="s0" d="m513.8 579.8c-5.6-4.5-5.8-4.8-7.6-10.8 2.2 1.4 3.1 3.5 4.4 5.1 1.3 1.6 3.3 2.8 3.2 5.7z"/>
			<path id="&lt;Path&gt;" class="s0" d="m513.9 810c0.5-1.9 1.2-3.5 2.6-4.8 1.2-1.1 1.8-2.7 2.8-4 1.1-1.4 1.7-3.3 4-4.7-2.2 5.7-5.5 9.8-9.4 13.5z"/>
			<path id="&lt;Path&gt;" class="s0" d="m660.5 799.4c0.4 0.3 0.9 0.4 1.1 0.7 3.7 4.2 7.3 8.4 10.7 12.8-1.9-0.6-2.9-2.5-4.2-3.8q-2.2-2.3-4.3-4.7c-1.2-1.5-2.4-3-3.7-4.5q0.2-0.2 0.4-0.5z"/>
			<path id="&lt;Path&gt;" class="s0" d="m607.6 712.6c1.5 1.6 3 3.2 4.6 4.7 1.8 1.5 2.9 3.3 3.6 5.4-1.7-0.5-6.4-5.7-8.7-9.6q0.2-0.3 0.5-0.5z"/>
			<path id="&lt;Path&gt;" class="s0" d="m583.9 739.8c0 0.2 0.1 0.6 0 0.8q-3 6.5-5.9 13.1c-0.1 0.1-0.4 0.1-1 0.3 1.7-5.2 4.3-9.7 6.3-14.4q0.3 0.1 0.6 0.2z"/>
			<path id="&lt;Path&gt;" class="s0" d="m732.9 892.1c2.4 3.3 4.8 6.5 7.4 10.2-2.8-0.6-3.7-1.8-7.8-9.7q0.2-0.2 0.4-0.5z"/>
			<path id="&lt;Path&gt;" class="s0" d="m594.9 708c2.5 2.5 4.6 5.2 5.7 8.7q-3.1-4-6.3-8.1 0.3-0.3 0.6-0.6z"/>
			<path id="&lt;Path&gt;" class="s0" d="m776.6 929.6c2.9 0.6 4.4 2.6 5.7 5q-0.2 0.2-0.4 0.5-2.9-2.5-5.8-5 0.2-0.2 0.5-0.5z"/>
			<path id="&lt;Path&gt;" class="s0" d="m688.4 818.3q-2.6-2.5-5.2-4.9c3.2 0 4.4 2.2 5.7 4.3q-0.2 0.3-0.5 0.6z"/>
			<path id="&lt;Path&gt;" class="s0" d="m687.8 831.5c-0.8-0.7-1.7-1.2-2.4-2-1.2-1.4-2.2-2.8-3.3-4.3 0.2-0.1 0.4-0.3 0.5-0.3 2.2 1.8 4.4 3.6 5.1 6.7z"/>
			<path id="&lt;Path&gt;" class="s0" d="m657.9 796.2c-3.3-1.5-5.5-4-6.1-6.6 2.3 2.4 4.2 4.5 6.1 6.6z"/>
			<path id="&lt;Path&gt;" class="s0" d="m634.6 760.4c-1.8 0.1-2.2-1.8-3.3-2.5-0.4-0.2-0.3-1.3-0.5-2.2 2.8 1.4 3.1 1.7 3.8 4.7z"/>
			<path id="&lt;Path&gt;" class="s0" d="m769.6 918.4c2.7 1.6 4.9 2.9 6.7 5.8-3-0.9-4.3-3-6.2-4.3-0.3-0.1-0.3-0.7-0.5-1.5z"/>
			<path id="&lt;Path&gt;" class="s0" d="m542.5 769.9c-0.4 3.4-3.3 5.4-4.7 8.2 1.1-3.1 2.5-5.8 4.7-8.2z"/>
			<path id="&lt;Path&gt;" class="s0" d="m724.6 877c-1.9-0.8-3.4-2-3.9-4.3 2.7 0.4 3.4 2.2 3.9 4.3z"/>
			<path id="&lt;Path&gt;" class="s0" d="m892.9 863.5c-0.5 1.4-0.5 1.4 0.5 3.2-2.8-0.8-3-1.1-3-3.6q1.3 0.2 2.5 0.4z"/>
			<path id="&lt;Path&gt;" class="s0" d="m665.9 791.1c-1.3-1.8-2.5-3.5-4-5.6 2.5 1 3.1 1.8 4 5.6z"/>
			<path id="&lt;Path&gt;" class="s0" d="m733.4 324.8l0.1-0.1q-1.2 0.5-2.3 0.9-0.2-0.2-0.3-0.3 1.8-2.3 3.7-4.5 0.2 0.1 0.4 0.2-0.8 1.9-1.6 3.8z"/>
			<path id="&lt;Path&gt;" class="s0" d="m927.4 916c-1.5-1.2-2.9-2.4-3.2-5 1.9 1.5 2.5 3.4 3.2 5z"/>
			<path id="&lt;Path&gt;" class="s0" d="m843.1 805.4q-2.1-2.6-4.2-5.3c1.6 0.4 4 3.3 4.2 5.3z"/>
			<path id="&lt;Path&gt;" class="s0" d="m843 809.8q-1.8-2.2-3.5-4.3c2.2 0.7 3.5 2 3.5 4.3 0 0 0 0 0 0z"/>
			<path id="&lt;Path&gt;" class="s0" d="m898.9 876.2c-1.3-0.5-2.3-1.3-1.7-3.3q1.2 1.4 2.3 2.7-0.3 0.3-0.6 0.6z"/>
			<path id="&lt;Path&gt;" class="s0" d="m713.7 864.3c2.2 0.8 2.2 0.8 2.2 2.6q-1.1-1.3-2.2-2.6z"/>
			<path id="&lt;Path&gt;" class="s0" d="m702.1 363c-0.1-0.5-0.4-1.1-0.2-1.3q1.1-1.6 2.7-2.9c-0.2 1.8-1.7 2.8-2.5 4.2z"/>
			<path id="&lt;Path&gt;" class="s0" d="m439.2 488.3q-1.3-1.6-2.6-3.2 0.4-0.2 0.7-0.5 1.2 1.6 2.4 3.3-0.2 0.2-0.5 0.4z"/>
			<path id="&lt;Path&gt;" class="s0" d="m468.3 522.3q-1.5-1.5-2.9-2.9c2.3 0.4 2.4 0.5 2.8 2.9z"/>
			<path id="&lt;Path&gt;" class="s0" d="m882 853.7c-0.5-0.5-1.1-1-1.4-1.6-0.1-0.3 0.2-0.8 0.3-1.2 0.4 0.2 1.1 0.4 1.2 0.7 0.3 0.6 0.2 1.3 0.3 1.9q-0.2 0.1-0.4 0.2z"/>
			<path id="&lt;Path&gt;" class="s0" d="m896.6 871.3c-2.5-0.4-2.5-0.4-1.9-2.4 0.6 0.8 1.2 1.5 1.9 2.4z"/>
			<path id="&lt;Path&gt;" class="s0" d="m704.8 354.1c0.7 1.8-0.7 2.1-1.7 2.9-0.4-1.7 0.5-2.3 1.7-2.9z"/>
			<path id="&lt;Path&gt;" class="s0" d="m624.2 747.5c1.5 0.3 2.4 0.9 2.6 2.1q-0.3 0.3-0.5 0.5-1-1.3-2.1-2.6z"/>
			<path id="&lt;Path&gt;" class="s0" d="m919.8 978.5c1.5 0.3 1.8 1.1 2 2.5-1.3-0.5-2-1-2-2.5z"/>
			<path id="&lt;Path&gt;" class="s0" d="m908.5 992.3c1.3 0.2 2 0.2 2.8 0.3 0 0.4 0.1 0.8-0.1 0.9-1 0.9-1.7 0.4-2.7-1.2z"/>
			<path id="&lt;Path&gt;" class="s0" d="m696.1 369.3q1.3-1.4 2.7-2.9 0.2 0.1 0.4 0.3c-0.7 0.9-1.4 1.8-2.1 2.7-0.2 0.1-0.7-0.1-1-0.1 0 0 0 0 0 0z"/>
			<path id="&lt;Path&gt;" class="s0" d="m677.9 819.3q1 1 1.9 2c-1.5 0.3-1.8-0.7-2.4-1.4q0.3-0.3 0.5-0.6z"/>
			<path id="&lt;Path&gt;" class="s0" d="m624.9 760c-0.6-0.7-1.2-1.4-2-2.5 1.1 0.8 1.8 1.4 2.5 1.9q-0.3 0.3-0.5 0.6z"/>
			<path id="&lt;Path&gt;" class="s0" d="m550.7 759.6c-0.6 0.8-1.1 1.6-2 3-0.3-2.1 0.7-2.7 1.5-3.5q0.2 0.2 0.5 0.5z"/>
			<path id="&lt;Path&gt;" class="s0" d="m916.9 974.3c0.5 0.5 1 1 1.8 1.8-1.8 0.3-2.3-0.3-1.8-1.8z"/>
			<path id="&lt;Path&gt;" class="s0" d="m702.1 363q-1.1 1.1-2.2 2.2-0.2-0.1-0.3-0.2 0.4-1.1 0.9-2.3c0.7 0.1 1.1 0.2 1.6 0.3q0 0 0 0z"/>
			<path id="&lt;Path&gt;" class="s0" d="m617.7 478.3q-0.9 0.8-1.7 1.7-0.2-0.2-0.4-0.4 0.9-0.8 1.7-1.7 0.2 0.2 0.4 0.4z"/>
			<path id="&lt;Path&gt;" class="s0" d="m845.9 807.2q0.8 1 1.5 2c-1.2-0.2-1.8-0.8-2-1.7q0.3-0.1 0.5-0.3z"/>
			<path id="&lt;Path&gt;" class="s0" d="m692.8 838.4c-0.7-0.8-1.1-1.4-1.6-1.9 0.3-0.1 0.5-0.3 0.6-0.2 0.3 0.2 0.7 0.5 1 0.9 0.1 0.1 0 0.5 0 1.2z"/>
			<path id="&lt;Path&gt;" class="s0" d="m596.1 717.3q-0.5 1-1 2-0.3-0.1-0.6-0.3 0.5-1.1 1-2.2 0.3 0.2 0.6 0.5z"/>
			<path id="&lt;Path&gt;" class="s0" d="m747.9 302.8c0-1.2-0.1-2.3 1.7-2.1-0.3 0.5-0.4 0.8-0.7 1.1-0.3 0.4-0.6 0.7-1 1z"/>
			<path id="&lt;Path&gt;" class="s0" d="m920.7 970.2c1.1-0.1 2.2 0 2.5 1.9-1-0.8-1.8-1.4-2.5-2z"/>
			<path id="&lt;Path&gt;" class="s0" d="m604.1 721.3q-0.5-0.8-1.1-1.5 0.1-0.2 0.2-0.3c0.4 0.2 0.7 0.3 1 0.6 0.2 0.2 0.3 0.6 0.4 0.9q-0.2 0.1-0.5 0.3z"/>
			<path id="&lt;Path&gt;" class="s0" d="m906.5 909.7q1 0.7 2 1.4-0.2 0.2-0.4 0.4c-0.7-0.4-1.6-0.6-1.5-1.9 0 0-0.1 0.1-0.1 0.1z"/>
			<path id="&lt;Path&gt;" class="s0" d="m705.9 356.4q0.7-0.9 1.4-1.7 0.2 0.1 0.4 0.3-0.6 0.9-1.1 1.9-0.4-0.2-0.7-0.5z"/>
			<path id="&lt;Path&gt;" class="s0" d="m285.6 247.1c-1 0.2-1.8 0.1-2-1.3 1.2-0.1 1.6 0.6 1.9 1.4 0.1 0 0.1-0.1 0.1-0.1z"/>
			<path id="&lt;Path&gt;" class="s0" d="m652.8 771.1q-0.5-0.6-1-1.2 0.2-0.1 0.3-0.3 0.6 0.5 1.2 1-0.2 0.3-0.5 0.5z"/>
			<path id="&lt;Path&gt;" class="s0" d="m743.3 886.3q0.6 0.6 1.2 1.2-0.2 0.1-0.4 0.3-0.6-0.5-1.2-1 0.2-0.3 0.4-0.5z"/>
			<path id="&lt;Path&gt;" class="s0" d="m755.9 905.3c-0.4-0.6-0.8-1.2-1.3-2 0.3-0.1 0.7-0.3 0.8-0.2 0.4 0.4 0.9 0.9 1.3 1.4q-0.4 0.4-0.8 0.8z"/>
			<path id="&lt;Path&gt;" class="s0" d="m920.7 970.1q-0.7-1.2-1.4-2.4c1.4 0.4 1.8 1.2 1.4 2.4 0 0.1 0 0 0 0z"/>
			<path id="&lt;Path&gt;" class="s0" d="m792.3 944.6c0.9-0.5 1.8-0.8 2.8 0.2-1.2 1.3-1.9-0.5-2.8-0.3 0 0.1 0 0.1 0 0.1z"/>
			<path id="&lt;Path&gt;" class="s0" d="m908.4 953.6q0.7 0.5 1.4 1-0.1 0.3-0.3 0.5-0.8-0.4-1.5-0.9 0.2-0.3 0.4-0.6z"/>
			<path id="&lt;Path&gt;" class="s0" d="m687.7 831.6c0.9 0.2 1.4 0.7 1.6 1.9-1.2-0.4-1.5-1.1-1.5-2z"/>
			<path id="&lt;Path&gt;" class="s0" d="m468.2 522.3q1.1 0.5 2.1 0.9-0.1 0.3-0.3 0.6c-1 0.1-1.2-0.9-1.7-1.5 0 0-0.1 0-0.1 0z"/>
			<path id="&lt;Path&gt;" class="s0" d="m496.7 574.6q0.5 0.7 1 1.4-0.2 0.2-0.4 0.3-0.6-0.6-1.1-1.2 0.2-0.2 0.5-0.5z"/>
			<path id="&lt;Path&gt;" class="s0" d="m746.5 910.5q0.4 0.6 0.7 1.3-0.2 0.1-0.4 0.2-0.4-0.6-0.7-1.3 0.2-0.1 0.4-0.2z"/>
			<path id="&lt;Path&gt;" class="s0" d="m599.7 721.8q0.4 0.5 0.7 1.1-0.2 0.1-0.4 0.2-0.4-0.5-0.8-1 0.3-0.1 0.5-0.3z"/>
			<path id="&lt;Path&gt;" class="s0" d="m493.5 328.8c-0.5 0.3-0.8 0.5-1.1 0.5-0.2 0.1-0.6-0.3-0.6-0.4 0.1-0.3 0.4-0.7 0.6-0.7 0.2-0.1 0.5 0.3 1.1 0.6z"/>
			<path id="&lt;Path&gt;" class="s0" d="m629.3 753.3q0.3 0.5 0.7 1-0.1 0.1-0.3 0.3-0.4-0.5-0.8-1.1 0.2-0.1 0.4-0.2z"/>
			<path id="&lt;Path&gt;" class="s0" d="m862.2 827.7c0.6 0.7 0.9 1.1 1.1 1.4q-0.1 0.1-0.2 0.3c-0.3-0.2-0.5-0.3-0.7-0.5-0.1-0.2-0.1-0.4-0.2-1.2z"/>
			<path id="&lt;Path&gt;" class="s0" d="m757.5 291.8q0.4-0.5 0.7-1 0.2 0.1 0.4 0.2-0.3 0.6-0.6 1.2-0.2-0.2-0.5-0.4z"/>
			<path id="&lt;Path&gt;" class="s0" d="m871.1 843.5q-0.7-0.6-1.4-1.2 0.3-0.3 0.5-0.6 0.7 0.6 1.4 1.2-0.3 0.3-0.5 0.6z"/>
			<path id="&lt;Path&gt;" class="s0" d="m896.6 1002.9q-0.5-0.6-1.1-1.2 0.2-0.2 0.3-0.4 0.7 0.6 1.3 1.1-0.3 0.3-0.5 0.5z"/>
		</g>
	</g>
</svg>