<svg version="1.2" xmlns="http://www.w3.org/2000/svg" viewBox="0 0 675 1200" width="675" height="1200">
	<title>v878-mind-63-ai</title>
	<style>
		.s0 { fill: #000000 } 
	</style>
	<filter id="f0">
		<feFlood flood-color="#bd1235" flood-opacity="1" />
		<feBlend mode="normal" in2="SourceGraphic"/>
		<feComposite in2="SourceAlpha" operator="in" />
	</filter>
	<g id="_Artboards_" filter="url(#f0)">
	</g>
	<g id="Graphic Elements">
		<filter id="f1">
			<feFlood flood-color="#bd1235" flood-opacity="1" />
			<feBlend mode="normal" in2="SourceGraphic"/>
			<feComposite in2="SourceAlpha" operator="in" />
		</filter>
		<g id="&lt;Group&gt;" filter="url(#f1)">
			<path id="&lt;Compound Path&gt;" fill-rule="evenodd" class="s0" d="m205.7 934.8q-0.1 0.1-0.1 0.1 0 0.1-0.1 0.3 0.1-0.1 0.2-0.2 0-0.1 0-0.2zm-1.5 2c-1.7 4.9-3.4 9.9-4.9 14.9-2.1 7-4.1 14.1-6.8 21 0.2-0.8 0.4-1.6 0.6-2.4 0.1-1.1 0.2-2-0.6-3.2-0.8-1.1-0.3-3.3 0.2-4.9 1-3.3 2.9-6.5 3.6-10 0.8-3.2 0.6-6.7 0.7-10 0-0.4-0.7-0.8-1.1-1.2 0.3-1.5 0.5-3.1 0.9-5.5-0.8 1.2-1.2 1.6-1.4 2.1-0.4 0.7-0.6 1.6-1 2.2-0.3 0.6-1 0.9-2 1.7 0.4-1.8 0.6-3 1-4.1 1.5-3.5 3.2-6.9 4.4-10.5 1-3.1 1.4-6.5 1.8-9.7 0.1-0.9-0.6-1.9-0.9-2.8q-0.4 0-0.8 0c-0.8 2.3-1 5.1-2.6 6.7-1.8 2-0.1 4.6-2.5 6.9 0.2-1.3 0.3-1.8 0.3-2.4-1 0-2 0-3.3 0 0.2-0.7 0.3-1.9 0.5-1.9 2.3-0.3 2.6-2.3 2.9-3.8 1.2-4.5 2.1-9.1 3-13.8q-0.4-0.1-0.8-0.2c-1.3 5-2.6 9.9-3.9 15.1-1.7-0.3-2.4 0.8-2.9 2.4-0.9 3.3-1.8 6.6-3.1 9.8-0.8-1.8 0-3.6 0.1-5.6q-0.8 1.5-1.6 2.9-0.3 0-0.5-0.1c0-0.6-0.2-1.2 0-1.7 2.6-8.4 5.4-16.8 8-25.2 1.1-3.5 1.7-7.2 2.6-10.8q1.6-6 3.2-12c1.6-5.7 3.1-11.2 4-17 0.9-5.7 2.7-11.2 4.3-16.7q4.2-14.8 8.7-29.5c3.1-10 6.3-20 9.4-30 3.3-10.6 6.5-21.2 9.7-31.8 4.9-16.1 9-32.4 14.2-48.5 5.9-18 11.8-36 18-54 0.9-2.4 1.2-5.1 1.8-7.7 0.3-1.2 0.8-2.4 1.4-4 0.5 1 0.8 1.6 1.5 2.8 1.8-5.5 3.5-10.5 5.2-15.6 2.1-6 4.2-12.1 6.3-18.2 1.8-5.7 3.6-11.4 5.4-17 0.9-2.8 1.8-5.5 2.7-8.2 3.8-11.6 7.7-23.1 11.4-34.7 2.7-8.3 5.1-16.6 7.7-24.9 2-6.3 4.2-12.5 6.3-18.7 2.5-7.6 5-15.2 7.4-22.8q2.5-7.6 5-15.3c2.6-8.2 5.1-16.4 7.7-24.6 3.4-10.6 6.9-21.3 10.2-32 2.2-6.9 4.1-14 6.2-20.9 0.9-3.2 2-6.4 3.2-9.5 3.8-10.7 7.5-21.3 11.4-32 3.6-9.7 7.3-19.4 11-29.1 4.1-10.6 8.3-21.1 12.1-31.8 5.4-15 10.7-30.1 15.8-45.3 3.6-10.4 7-20.8 10.3-31.3 1.1-3.7 2.7-7.4 2.4-11.4q-0.3-3.6-0.8-7.1c-0.4-3.8 0.5-4.8 4.2-5.5 1.7-0.3 3.2-1.3 5-2 0.6 0.5 1.3 1.1 2 1.7q0.9 0.8 1.9 1.6c4.1-1.6 4.9-1 7 2.5 0.8-0.3 1.7-0.5 2.6-0.7 0.7-0.2 1.7-0.7 2-0.4 2.1 1.9 5 1.5 7.2 2.7 2.9 1.5 3.9 1.2 5.2-1.7 1.8-3.8 2.3-4.1 6.2-3.2 3.1 0.6 6.1 1.4 7.9 4.4 0.2 0.4 0.7 0.6 1 0.8 1.8-0.7 3.3-1.8 5-2 1.7-0.1 3.4 0.8 5.2 1.1 0.8 0.2 1.6 0.2 2.4 0.1 5.6-1 7.2-0.2 9.9 4.6 0.1 0.1 0.4 0.3 0.7 0.5 0.2-0.1 0.7-0.1 0.8-0.3 3.3-3.5 7.1-1.9 10.7-1.1 0.4 0.1 0.7 0.3 0.9 0.6 1.5 2.2 3.4 4.1 4.4 6.5 3.2 7.6 5 15.5 4.4 23.7-0.4 5.1-1.6 10.2-2.6 15.2-1.4 7.8-2.7 15.7-4.4 23.5-2.3 9.7-4.8 19.4-7.5 29-2 7.3-4.6 14.3-6.9 21.5-2.6 8-5.1 16.1-7.8 24.1-3.1 9.4-6.4 18.7-9.5 28.1q-5 15.6-9.7 31.4c-2.7 9.2-5.2 18.5-7.8 27.8q-2.5 9.3-5.1 18.6c-0.3 1.2-0.4 2.4-2.1 2.4-0.4 0-0.9 1.1-1.1 1.7-0.6 2-1.2 4.1-1.8 6.2q-3.5 12.3-7 24.7c-1.7 5.7-3.4 11.4-5 17.2-2.1 7.3-4.1 14.6-6.2 21.9-0.1 0.6-0.7 1.1-1.5 1.5 1.6-5.1 2.6-10.3 3.5-15.5 0.9-5.4 2.1-10.8 4-16.1 1.7-5.1 2.7-10.5 4.2-16.3-2.3 1.1-2.3 2.9-2.8 4.3q-2.6 8.2-5 16.4c-1.9 6.4-3.8 12.8-5.6 19.2-1.5 4.9-3 9.8-4.5 14.7-0.9 3.2-1.8 6.5-2.9 9.6-1.2 3.7-2.7 7.3-4 11-0.5 1.4-0.4 3-0.6 4.5-0.2 1.3-0.3 2.7-0.9 3.8-1.7 3.2-2.6 6.5-3.3 10.1-0.7 4-2.2 7.8-3.4 11.6-1.6 5.4-3.1 10.8-4.7 16.1-1.5 4.7-3.1 9.3-4.6 14-2.3 7.4-4.6 14.8-6.9 22.2-0.6 1.8-1 3.6-1.6 5.4-0.6 1.4-1.4 2.8-2.1 4.4-0.7-0.5-1.2-0.9-1.7-1.3-0.2 0.6-0.3 1.2-0.4 1.7-2.4 7.5-4.9 15-8 22.2-1.8 4-3.6 8.2-4.5 12.4-1.4 6.3-3.9 12.2-5.3 18.5-0.5 2.4-2.4 4.5-1.2 7.2 0.1 0.4-0.2 1.2-0.6 1.6-2 2.6-2.1 5.8-3 8.8q-2.8 9.7-5.7 19.5-1.9 6.2-3.8 12.3c-1.9 6.3-4 12.5-5.8 18.8-1.2 4.2-2.1 8.5-3.1 12.8-0.1 0.4 0 0.9-0.2 1.4q-4.5 14.7-9 29.3c-0.1 0.2-0.3 0.4-0.7 0.9 0.2-4.5 1.3-8.5 2.4-12.6 2.9-9.7 5.7-19.4 8.5-29.1 0.8-2.4 1.6-4.8 2.3-7.1q2.4-7.5 4.7-15.1c1.3-4.2 2.6-8.4 3.8-12.6 1.5-5.7 3-11.3 4.6-16.9 0.9-3.2 2-6.4 2.6-9.7 1-4.6 2.6-8.9 4.2-13.3 1.9-5.6 3.3-11.4 5-17.1 2.7-9.5 5.6-19 9.9-28 0.6-1.2 1.1-2.6 1.4-4 0.4-1.4 1-2.5 2.2-3.5 1.1-1 1.8-2.6 2.2-4 1.4-4.6 2.6-9.2 3.9-13.8 0.4-1.3 0.9-2.7 1.2-4.1 0.3-1.6 0.4-3.2 0.7-4.8 0.3-1.7 0.6-3.3 1.1-4.9 0.5-1.7 1.3-3.3 1.7-5.1 0.4-1.4 0.7-2.6 1.9-3.7 0.7-0.7 1.4-2.2 1.2-3.2-0.8-3.4 0.6-6.2 2-9 1.5-2.8 0.9-6 2.5-8.7 0.8-1.4 1.3-3.1 2.1-4.5 0.7-1.3 1.6-2.3 0.8-4-0.2-0.3 0.1-1.2 0.4-1.6 2.7-3.6 3.1-7.9 3.1-12.2-1.8 3-2.7 6.5-3.8 9.9-1.1 3.4-2.6 6.7-3.9 10.1q-0.3-0.2-0.7-0.3 7.7-25.8 15.4-51.5-0.4-0.2-0.8-0.4c-0.4 0.6-1 1.2-1.2 1.8-2.3 7.6-4.5 15.1-6.8 22.6-2.3 7.3-4.7 14.5-7 21.8-3.6 11.4-7.1 22.8-10.8 34.1-2.6 8.3-5.4 16.5-8.1 24.8-1.1 3.4-2 6.9-3.1 10.3-0.7 2-1.5 4-2.3 6-1.3 3.3-2.7 6.6-3.7 10-2.7 8.5-5.3 17.1-7.8 25.6-3.3 3.8-3.1 8.9-5 13.3-0.7 1.7-0.7 3.7-1.2 5.5-1.8 6.4-3.8 12.8-5.6 19.2-2.6 8.9-5.1 17.8-7.7 26.8-1.3 4.4-2.7 8.8-4.1 13.3-1.5 5-2.9 10.1-4.4 15.1-0.9 2.9-2 5.8-3 8.8-1.6 4.9-2.8 9.9-4.7 14.6-1.9 4.7-3 9.5-4.4 14.3-1.5 5.2-3.7 10.2-5.4 15.4-1.8 5.3-3.4 10.7-5.1 16q-0.6 1.7-1.1 3.4c-2 6.2-3.9 12.5-5.9 18.7-1 2.8-2.3 5.5-3.4 8.3-0.9 2.2-1.8 4.4-2.5 6.6-0.9 3-1.7 6-2.5 9-0.2 0.4-0.2 0.9-0.4 1.3q-4 11-8 21.9-0.8 2.2-1.6 4.5-0.5-0.2-0.9-0.3c0.3-1.1 0.5-2.1 0.9-3.2 2.8-8.3 5.7-16.7 8.5-25 2.6-8.2 5-16.4 7.5-24.6 3.1-10.1 6.5-20.2 9-30.4 1.4-5.5 3.6-10.7 4.5-16.4 0.4-3.2 2.1-6.3 3.2-9.4 0.2-0.9 0.2-1.8 0.2-2.7 0-0.3-0.1-0.7 0-1 2.4-4.9 2.8-10.5 4.7-15.6 3-8 5.1-16.4 7.5-24.6 0.4-1.2 0.8-2.5 1.1-3.7 0.2-1 0.3-2 0.5-2.9q-0.5-0.1-0.9-0.2-1.4 3.6-2.7 7.2c-1.3-1.4-1.3-1.4 0.2-5.5 0.6-1.9 1.3-3.8 1.9-5.7 0.7-0.8 2.9 1.4 2.8-1.2-2-0.4-2-0.4-3.4-2.7-0.7 1.5-1.3 2.8-1.7 4.1-1.5 5.4-3 10.8-4.6 16.1-1.7 5.8-3.6 11.4-5.3 17.1-2.7 9.3-5.2 18.6-8.2 27.8-4.3 12.9-9 25.6-13.4 38.5-1.5 4.1-2.5 8.4-3.8 12.6-2 6.6-3.6 13.3-6.4 19.7-1.6 3.4-2 7.3-3 11-1.8 7-3.6 14.1-5.4 21.3q1-0.1 1.5-0.2c-0.5 2-0.8 4.1-1.5 6.1-1.2 3-2.9 5.7-3.9 8.8-1 2.8-1.4 5.9-2.2 9.3-1.1-0.9-1.8-1.4-2.7-2.2-8.3 18.9-16.5 37.7-24.7 56.4q-0.5-0.2-0.9-0.3 0.6-1.7 1.2-3.3 1.6-4.3 3.2-8.6l-0.1 0.1c0.6-0.9 1.3-1.8 1.7-2.7 1.9-4.9 3.8-9.8 5.8-14.6q3.6-9.1 7.3-18.2c2-4.8 3.7-9.7 4.7-14.9 1.1-5.7 2.7-11.4 3.6-17.3-0.4 0.6-0.8 1.2-1 1.8-1.2 3.5-2.5 7-3.4 10.6-0.7 2.7-3 4.5-3.4 7.9-1.3-2.7-1.3-2.6 0.1-6.8 0.8-2.1 1.2-4.3 1.3-6.7-0.3 0.4-0.9 0.9-0.9 1.3 0.1 2.6-2 4.4-2.6 6.7-0.5 2.2-1.1 4.4-1.6 6.6-1.2 5-2.4 9.9-4.2 14.8q-0.2-0.6-0.4-1.1c-0.2 0-0.5 0.1-0.5 0.2q-1.4 4.4-2.7 8.9-0.1 0.5-0.4 0.9c-1.7 3.3-3.5 6.5-5 9.9-2.1 4.8-3.9 9.7-5.9 14.5-2.3 5.6-4.8 11.1-7.1 16.6-1.9 4.7-3.9 9.4-5.6 14.2-1.6 4.2-2.8 8.5-4.7 12.5 0.6-2.4 1.1-4.8 1.7-7.3q-0.5-0.2-1.4-0.6c1.7-4.2 4.3-8.1 4.5-12.7 3.5-2.1 3.4-6 4.2-9.3 0.4-1.4 0.7-3 1.1-4.6 1-4.2 3.8-7.9 4-12.4 0.1-0.6 0.7-1.7 0.9-1.7 1.9 0.4 1.9-1.1 2.3-2.1 1.9-4.8 3.9-9.7 5.8-14.5 0.4-0.9 0.8-1.8 1.2-2.6q-0.3-0.2-0.7-0.4c-1 1.5-2.1 3-3 4.5-0.6 1.2-1.2 2.5-1.5 3.8-0.6 1.9-0.8 3.8-3 5.6 0.4-2.4-0.5-4.2 0.8-6 0.6-0.8 0.5-2.3 0.6-3.4 0.1-2-0.1-4.1 0.5-5.9 0.5-1.6 0.5-2.9 0.1-4.3-0.3 0.9-0.8 1.7-1 2.5-1 3.4-1.3 7.2-3 10.2-2.6 4.9-2.8 10.5-5 15.5-0.2 0.4-0.2 1.1 0.1 1.4 1.6 1.5 0.5 2.5-0.5 3.7-0.4 0.4-0.8 0.8-1 1.2-1.9 5.4-2.9 11.1-6.5 15.8-0.9 1.1 0 2.6 1.3 3-0.1 2.3-1.5 3.7-3.3 4.8 0.3 0.7 0.6 1.3 0.8 1.7-3.3 3.7-2.5 8.9-5.9 13 0.3-2.5 0.7-4.4 1.7-6.2-0.7-0.2-1.5-0.4-2.6-0.7-1.3 2.7-2.9 5.6-4.2 8.6-1 2.3-2.1 4.4-3.5 6.5-1.9 2.9-2.9 6.5-4.3 9.8-0.6 1.5-1.1 3.1-1.7 4.6 0.3-3.8 5.7-20 9.1-27.5 0.1 0.7 0.3 1.4 0.5 2.8 1.3-2 2.3-3.3 3.1-4.8 4.1-7.3 6.4-15.3 8.5-23.4 0.2-0.7 0.5-1.5 0.2-2.1-1-2.4 0.2-4.4 1.3-6 2.6-4.1 3.8-8.8 5.2-13.3 1.9-5.9 3.4-11.9 5.1-17.9 0.2-0.7-0.1-1.6 0.1-2.4 0-0.5 0.6-0.8 1.4-1.8-0.6 5.8-3 10.4-2.9 15.5 0.3-0.9 0.7-1.7 0.9-2.6 2.4-9.1 4.9-18.2 7.2-27.3 1-4.2 1.7-8.4 2.6-12.6 1.1-5.1 2.4-10.2 3.4-15.4 1.1-5.7 2-11.4 3.1-17.1 0.6-2.9 1.5-5.7 2.4-8.9-2.3 0.5-2.9 2.1-3.4 3.6q-1.5 4.8-2.7 9.6c-1.2 4.9-2.3 9.8-3.6 14.6-0.7 3-1.9 5.9-2.7 8.9-2.4 8.2-4.6 16.5-6.9 24.8-1.4 4.8-2.8 9.6-4 14.5-0.3 1.3-1.5 3 0.9 3.7-1.9 4.3-3.7 8.4-5.4 12.5q-0.4-0.1-0.8-0.2c0.1-0.8 0.1-1.6 0.3-2.3 1.6-6.4 3.2-12.7 4.9-19 1.3-5 2.8-9.9 4.2-14.8 0.2-0.9 0.5-1.9 0.6-2.8q1-4.9 1.9-9.8c0.3-2 0.5-4 1-5.9 0.3-1.5 1.1-2.9 1.4-4.3 0.9-3.9 1.5-7.7 2.3-11.6 0.1-0.3 0.6-0.6 0.9-0.9-0.5-0.2-1-0.4-1.9-0.9-4.6 12.2-6.4 25.1-10.7 37.3q0.8-4 1.5-7.9-0.3-0.1-0.6-0.2c-0.4 0.7-0.8 1.5-1.2 2.3q-6.7 16.8-13.3 33.6c-0.4 0.8-0.7 2.1-0.3 2.7 1.9 3 0.1 5.1-1.4 7.4q0.4-1.9 0.8-3.8-0.3-0.1-0.6-0.2c-1.8 3.4-3.6 6.8-5.2 10.3q-2.9 6.5-5.4 13.2c-1.7 4.3-3 8.8-4.5 13.1-0.3 0.9 0.1 2.9-2.1 2-0.1 0-0.8 0.9-0.9 1.4-1.2 3.6-2.4 7.2-3.1 11.1q0.8-0.7 1.6-1.4c0.7 3.3-0.2 6.4-1 9.5-0.2 0.7-0.7 1.4-1.1 2.1-0.6 1.1-1.3 2.2-1.7 3.4q-1.2 3.7-2.2 7.4c-0.1 0.7 0.1 1.6 0.4 2.3 0.6 1.7 0.3 2.2-1.8 2.7 0.6 3.4-1.7 5.6-3.3 8.2-0.1 0.1-0.6-0.1-1-0.2 3.8-9.1 6.5-18.5 9.1-28-4.4 6.2-6.3 13.6-9.2 20.7-0.4-0.1-0.8-0.3-1.5-0.5q-2.4 5.2-4.7 10.4-0.3 0-0.5 0c0-0.6-0.1-1.3 0-1.9 0.8-2.7 2.7-5.2 1.6-8.4-0.2-0.8 0.4-1.9 0.8-2.7 1.8-4 3.1-8.3 5.5-11.9 2.3-3.6 1.9-8.3 5.1-11.4 0.4-0.5 0.2-1.8 0.3-3.2 0.2-0.1 1-0.5 1.6-1 0.4-0.4 0.6-1.1 1.2-2.1-1.4 0.3-2.2 0.6-3.1 0.8 0.7-2.5 1.3-5 2-7.4 0.1-0.5 0.9-0.8 1.2-1.3 0.5-0.5 1-1.2 1.5-1.9-3.3-0.9-3.4-0.8-4.1 1.4-0.9 2.7-1.7 5.4-2.8 8-1.4 3.2-2.4 6.5-2.8 10-0.1 0.3-0.3 0.6-0.4 1q-1.1 0-2.1 0c0.1-0.6 0.1-1.3 0.2-2.5-1.1 0.9-1.8 1.4-2.7 2.2 1.1-4.4 2.1-8.6 3.2-12.9-0.5-0.4-1.1-0.8-1.9-1.4 2-4.3 4.1-8.5 6-12.9 0.9-2.3 1.5-4.7 2.1-7.1 1.3-5.5 3.4-11 3.3-16.8 1.6-1.5 1.1-3.8 1.9-5.6 1.1-2.8 2.5-5.4 2.8-8.5 0.2-2.9 0.8-5.8 1.1-8.7 0.3-1.8 0.3-3.6 1.9-4.8 0.2-0.2 0.4-0.4 0.4-0.6-1.1-3.3 1.1-6.1 1.1-9.3 0-0.1-0.1-0.2-0.6-0.6-0.7 2.3-1.4 4.4-2 6.5-0.7 2.6-1.3 5.3-2 7.9-1 3.8-1.4 7.9-2.9 11.5-0.4 1-1.2 1.8-1.8 2.6 1.1-5.4 2-10.9 4.1-16.1 0.9-2.2 1.2-4.8 1.8-7.1 1-3.9 2-7.8 3-11.7-0.5 0.5-1.1 0.9-1.3 1.6zm-8.3 4.2q0 0 0 0v-0.1q0 0 0 0.1zm36.1 66.2q0 0-0.1 0.1l0.1-0.1q0 0 0 0zm13.3-53.3q0.1 0 0.1-0.1 0 0 0-0.1-0.1 0-0.1 0 0 0.1 0 0.2zm2.7-2.1c-0.2-2.2 0.6-3.4 1.8-3.9 0.5-1.8 0.9-3.2 1.3-4.5q0.2-0.8 0.5-1.5c0.6-2 0.9-4.3 2.1-5.8 4-5.3 6.3-11.1 7.6-17.5 0.1-0.7 0.7-1.2 1-1.8-0.2 4.1-1.1 7.9-1.9 11.7 0 0.3 0.2 0.6 0.3 1 0.8-0.3 1.4-0.6 2.1-0.9-0.9-3.6 1-6.6 2.9-9.1 2.3-3 3.4-6.2 4.4-9.6 0.5-1.6 1.2-3.2 2-5.1 1 1.4-0.5 3.1 1.4 3.4 1.3-2.4 3.4-4.6 2.5-7.7-0.1-0.3 0.3-0.6 0.4-1 0.6-1.8 1.2-3.6 1.8-5.4-0.8-0.6-1.5-1.1-2.1-1.6q0.5-2.8 0.9-5.6c0-0.1-0.4-0.2-0.7-0.4-0.5 0.8-1 1.7-1.6 2.8-0.2-1.2-0.3-2-0.4-2.8-0.7 0.5-0.9 1-1 1.5-1.1 3.2-1.6 6.6-3.3 9.4-1.8 3.1-2.9 6.2-3.7 9.6-0.3 1.6-1.2 2.6-2.7 3.8 0.2-1.8 0.3-3.3 0.4-4.7q-0.2-0.1-0.4-0.2-1 1.8-2 3.6c0-2.1 0.4-4 1-5.8 0.6-2 1.9-3.9 0.6-6.1-0.5 0.2-1 0.2-1.1 0.4-1.8 3.2-4.1 6.3-5.1 9.7-3.3 10.6-6.1 21.3-8.9 32-0.9 3.3-1.4 6.7-2 10.1q-0.4 1.9-0.7 3.9c2 0.6 2.8 0.2 2.6-1.9zm25.5-43.6q0 0-0.1 0.1 0.1 0 0.1 0 0-0.1 0.1-0.1-0.1 0-0.1 0zm-1.5 6.9c-0.3 1.4-0.5 2.8-0.8 4.2q0.4 0.1 0.9 0.2c1.1-3.6 2.8-7 2.4-11.1q-0.5 0-1-0.1-0.7 3.4-1.5 6.8zm4.1-22.6q0 0 0 0 0 0 0 0zm-46.4 114.7q0 0 0.1-0.1l0.1 0.1q-0.1 0-0.2 0zm-3.3 4.8q0 0 0 0-0.1 0-0.1 0.1 0 0 0 0 0 0 0.1-0.1zm0.4-3.4q-0.3-0.1-0.5-0.1c-0.6 1.4-1.1 2.9-1.9 5 1-0.7 1.5-1.1 1.9-1.4q0.2-1.8 0.5-3.5zm-3.8 11.9q0.1 0 0.2 0-0.1 0-0.1-0.1 0 0 0 0.1 0 0-0.1 0zm0.4-4.4c-1 1.8-1.3 3-0.3 4.3 0-1.2 1.2-2.4 0.3-4.3zm23.4-111q0 0 0 0 0 0 0 0 0 0 0 0 0 0 0 0zm0.5-6.8c-2.3 2.4-1.7 4.6-0.5 6.8-0.1-2.1 1.5-4.2 0.5-6.8zm-28.4 81.1q0 0.1 0 0.3l-0.1-0.1q0.1-0.1 0.1-0.2zm-19.3 45.7q0 0 0 0 0 0 0 0zm0 0q-0.1 0-0.1 0 0-0.1 0-0.1c0 0 0.1 0.1 0.1 0.1zm-11.8 35.4q0 0 0 0 0 0 0 0zm-1.3-29.4q0 0.1 0 0.1v-0.1q0 0 0 0zm10.1-61q0 0.1 0 0.3l-0.1-0.1q0.1-0.1 0.1-0.2zm8.8-41.4q0.1 3.1 0.3 6.1c1.1-2 1.2-4-0.3-6.1zm-11.3-25q0 0.1-0.1 0.3 0 0.1 0 0.1 0 0 0.1-0.1 0-0.1 0-0.3zm-2.5 8.8c0.9-1.8 1.6-3.8 2.1-5.7 0.2-0.9 0.2-1.8 0.3-2.7-2.2 2.4-2.1 5.5-2.4 8.4zm4.7-14.1c-2.5 1.2-2.1 3.3-2.2 5.3q1.1-2.6 2.2-5.3zm14.6 83.6q0 0 0 0-0.8-1-1.6-2.1-0.4 0.1-0.8 0.3-1.2 4.8-2.5 9.6 0.5 0.1 0.9 0.2c0.5-1.9 1-3.8 1.6-5.7 0.3-1.2 0.4-2.8 2.4-2.3zm0-1c2.9-7.3 6-14.5 8.7-21.9 1.5-4 3.1-8.1 3.2-12.6-1.6 3.4-2.9 6.8-4.3 10.2-0.8 1.9-1.5 3.7-2.4 5.5-0.2 0.4-0.9 0.6-1.9 1.1 1.1-2.8 2-5 2.8-7.1 2.1-5.4 4.1-10.7 6.1-16.1 1.1-2.9 2-6 3-9 0.8-2.2 2-4.3 2.7-6.5 0.9-2.5 1.5-5 2.1-7.6 0.5-1.7 0.7-3.5 1.1-5.3-1.1 1.2-1.7 2.5-2.2 3.8-1.1 3-2.1 6.1-3.2 9-0.7 1.9-1.8 3.7-2.3 5.6-1.2 3.9-2 7.8-3.1 11.8-0.2 0.7-0.5 1.5-0.9 2.2-0.9 1.8-2.6 3.5-2.6 5.3 0 2.6-2.8 2.7-3.1 4.8-0.3 2-0.9 4-1.4 5.9-0.4 1.7-0.8 3.4-1.2 5.3 1.1-0.1 1.6-0.2 2.3-0.2-0.9 3.2-1.3 6.5-2.7 9.1-1.5 2.7-1.3 5.1-0.7 7.7 0-0.3-0.1-0.7 0-1zm0 1q0 0 0 0 0 0 0 0.1 0-0.1 0-0.1zm24.3-0.3q0 0 0 0.1 0 0 0 0 0 0.1 0.1 0.1-0.1-0.1-0.1-0.2zm-2.2 2.3c-1 3.3-1.9 6.6-2.9 9.9q-0.7 2.5-1.4 5c3.7-5.1 4.8-11.2 6.5-17.1-1.7-0.2-1.9 1.1-2.2 2.2zm3.3-6.4c-1.8 1.1-1.7 2.6-1.1 4.1q0.5-2.1 1.1-4.1zm-36.9 17.7q1.7-2.8 3.4-5.6c0.2-0.3 0.3-0.6 0.3-1-0.3-2.6 1.3-4.7 2.1-7.1 1.1-3.5 2.3-6.9 3.5-10.4-0.8 0.1-1.1 0.4-1.3 0.7-1.5 3.2-3 6.3-4.4 9.4-0.3 0.8-0.5 1.8-0.7 2.7-0.2 2.1-2 6.8-3.3 8.8-0.5 0.9-1.2 1.9 0.4 2.6q0 0 0-0.1zm0 0.1q0 0 0 0.1 0-0.1 0-0.1 0 0 0 0zm-1.1 4.1c-0.6-0.4-0.9-0.6-1.6-1.1 0.2 1.1 0.3 1.8 0.5 2.8 2.8-1.5 2.8-3.5 2.2-5.7-0.3 1.3-0.7 2.6-1.1 4zm11.5-84.2q0 0.1-0.1 0.1 0 0.1 0 0.1 0.1 0 0.1 0 0-0.1 0-0.2zm-0.8 0.7c-1 3.4-1.9 6.8-2.9 10.2q0.5 0.3 1 0.7c0.2-0.5 0.5-1 0.6-1.6q1-4.9 2-9.8c-0.3 0.2-0.6 0.3-0.7 0.5zm0.8-3q0 1.1 0 2.3c0.8-0.6 1.2-1.3 0-2.3zm152.8-247.5q0.7-2 1.4-4c0.6-1.9 1.3-3.7-0.5-5.6-0.7-0.7-0.4-2 0.6-2.7 0.5 0.3 0.8 0.5 1.2 0.8 0.7-1.9 1.4-3.6 1.9-5.3 0.5-1.8 0.4-3.8 1.2-5.4 2.2-4.9 2.3-6.8 2.4-13.8-4.2 3.1-1.3 7.7-2.7 11.3-0.7-0.2-1.4-0.4-2-0.6-2.7 5.1-10 32.2-9.6 35.3 1.2-1.3 2.5-2.5 3.6-3.8 1.5-1.7 1.7-3.8 0.6-5.8-0.1-0.1 0.1-0.4 0.2-0.9 0.5 0.1 1 0.3 1.7 0.5zm-135.2 281.4q-0.5-0.2-1-0.4c-0.5 1.2-1.1 2.3-1.6 3.4-1.6 4.4-3 8.8-4.7 13.1-1.7 4.2-3.6 8.3-5.3 12.4-1.3 2.9-2.4 6-3.9 8.8-3 5.4-4.3 11.4-5.8 17.4 7.6-18.2 15.8-36.1 22.3-54.7zm-25.6 26.4q0.4 0.1 0.7 0.2c0.7-2 1.5-3.9 2.1-5.9 2.5-8.1 4.9-16.3 7.4-24.5 0.6-2.1 1.5-4.2 0.8-6.6-2.5 1.1-2.6 3.3-3.1 5.3-0.7 2.9-0.9 5.8-1.7 8.7-1.7 6.6-3.7 13.2-5.5 19.8-0.3 1-0.5 2-0.7 3zm143-246.4c-1.6-0.3-2.7-0.4-3.8-0.6-2.1 3.5-6.3 17.9-6 21 2.1-5.3 4-10.2 6-15.4 0.7 0.9 1.1 1.3 1.6 2 0.8-2.4 1.4-4.5 2.2-7zm66.2-174.8c4.1-8.8 6.8-18.1 8.5-27.7-3.7 8.9-5.9 18.3-8.5 27.7zm-123.7 329.3c-4.4 10.2-6 21.1-8.6 31.7 0.6-0.4 1.2-0.9 1.4-1.5 2.2-8.2 4.4-16.5 6.5-24.7 0.4-1.8 0.5-3.7 0.7-5.5zm-60.2 55.2q0.4 0.2 0.9 0.4c0.4-0.9 0.9-1.8 1.2-2.8q2.9-9.3 5.8-18.6c0.7-2.3 1.4-4.7 2-7.1q-0.4-0.1-0.8-0.2-4.5 14.1-9.1 28.3zm-40.8 90.6c2.9-7.4 5.3-14.9 6.9-22.7-2.8 7.4-5.6 14.8-6.9 22.7zm12-10.9c2.4-3.2 4.8-10.4 4.4-13.5-2.4 4.2-3.3 8.9-4.4 13.5zm42.8-106.4q-0.5-0.2-1-0.4c-2.3 3.5-2.6 7.7-3.8 11.7q0.4 0.1 0.8 0.2 2-5.8 4-11.5zm-38.3-5.7c-1.7 2.4-3 5.1-2.4 8.5 2.6-2.4 2.8-5.4 2.4-8.5zm10.5-0.8c-2 3.2-2.6 5.2-2.5 8.1 0.7-0.6 1.6-1.3 1.5-1.5-0.8-1.8 0.5-3.1 1-4.6 0.2-0.5 0-1 0-2zm26.5 86.7c3.2-2.4 4-4.5 3.4-7-1.2 2.5-2.3 4.7-3.4 7zm-33.7-98.7c-1.9 2.8-2.1 4.2-1.3 6.4q0.7-3.2 1.3-6.4zm-12.9 143.4q-0.5-0.2-0.9-0.3-0.9 2.3-1.7 4.7 0.4 0.1 0.7 0.2 1-2.3 1.9-4.6zm62-91.1c-1.5 1.1-2.5 2.3-1.4 4.3q0.7-2.2 1.4-4.3zm-56.3-41.9c0.5-1.3 0.9-2.5 1.6-4.3-2.6 1-2.6 2.4-1.6 4.3zm138.9-154.8q0.5 0.1 1 0.2 0.6-2.2 1.2-4.4-0.5-0.1-1-0.2-0.6 2.2-1.2 4.4zm-94.8 156.7c-2.2 2.2-2.2 2.2-1.5 4 0.6-1.5 1-2.8 1.5-4zm-29.3 23.8q0.4 0.2 0.8 0.5 0.6-2 1.2-4-0.4-0.1-0.8-0.3-0.6 1.9-1.2 3.8zm-14.3 78.7q0.2-1.4 0.5-2.7c-1.1 0.7-1.8 1.5-0.5 2.7zm40.4-13.5c-0.2-0.2-0.3-0.4-0.4-0.4-0.1 0-0.2 0-0.3 0.1q-0.6 1.1-1.1 2.2c0 0 0.3 0.2 0.5 0.5q0.7-1.3 1.3-2.4zm-45 8.2q-0.3-0.3-0.7-0.5-0.4 0.9-0.8 1.8 0.4 0.1 0.7 0.3 0.4-0.8 0.8-1.6zm19-99.9c1.7-1.5 1.7-1.5 0.3-2.6-0.1 0.9-0.2 1.6-0.3 2.6zm-16.1 89.7q-0.2-0.1-0.5-0.1-0.3 1-0.5 2 0.2 0.1 0.4 0.1 0.3-1 0.6-2zm36.3-81.8q0.3 0.2 0.6 0.4 0.5-1 0.9-2.1-0.2-0.1-0.5-0.2-0.5 1-1 1.9zm35.9 7.4q0.3 0.2 0.6 0.4 0.4-1.3 0.8-2.5-0.3-0.1-0.5-0.2-0.5 1.2-0.9 2.3zm-20.7 38.8q0.3 0.2 0.7 0.4 0.3-0.9 0.6-1.9-0.2-0.1-0.5-0.2-0.4 0.9-0.8 1.7zm25.8-20.2q-0.3 0-0.7 0-0.2 1.1-0.4 2.2 0.3 0.1 0.7 0.1 0.2-1.1 0.4-2.3zm-3.6-48.7q0.3 0.2 0.7 0.4 0.4-1 0.8-2-0.2-0.1-0.5-0.3-0.5 1-1 1.9z"/>
			<path id="&lt;Path&gt;" class="s0" d="m426.5 527.4c-0.8 2.9-1.7 5.8-2.4 8.8-0.9 4.2-2.2 8.4-3.3 12.6-1.1 3.7-0.8 7.9-3.4 11.4-1.5 1.9-1.3 5-2.1 7.5-2.6 8.7-5.3 17.3-8 26-1.9 5.9-2.9 12-5.9 17.5 0.1 4.7-2.4 8.6-3.4 13-1.2 5.1-2.9 10.1-4.4 15.1-2.3 7.8-4.5 15.6-6.8 23.4-2 6.7-4.1 13.4-6 20.1-1.2 3.8-2.2 7.6-3.2 11.4-1.4 4.8-2.9 9.6-4.3 14.4-2 7.2-4 14.5-6 21.7-1.7 5.8-3.4 11.7-5.1 17.5-1.8 6-3.5 12.1-5.3 18.2-1.9 6.5-3.8 13-5.7 19.5-1.9 6.2-3.7 12.5-5.5 18.8q-3 10.1-6.1 20.2c-2.6 8.4-5.2 16.8-7.8 25.3-1.7 5.7-3.4 11.4-5.2 17.1-0.4 1.2-1.3 2.3-2.1 3.8-0.3-0.8-0.5-1-0.4-1.2 0.8-2.5 1.7-4.8 2-7.5 0.2-2.6 1.2-5.1 2.3-7.5 1.7-3.7 2.6-7.6 3.5-11.6 0.9-3.5 2.2-6.9 3.1-10.5 0.5-1.6 0.8-3.4 1.1-5.1 0.1-0.4 0.1-0.8 0.3-1.1 3.3-5.1 3-11.3 5.5-16.7 1.6-3.7 2.1-7.8 3.2-11.7 1.4-4.8 3-9.5 4.4-14.3 0.4-1.3 0.5-2.7 0.9-4.1 0.7-2.4 1.6-4.9 2.3-7.4 2.1-7.2 4-14.4 6-21.6q0.3-0.8 0.6-1.7 2.3-7.7 4.6-15.4c2.4-8.1 4.9-16.2 7.2-24.3 0.8-2.7 1.4-5.5 2.2-8.3 1.6-5.8 3.2-11.7 5-17.5 2.4-8.1 5.1-16.1 7.6-24.2 1.3-4.2 2.5-8.5 3.9-12.7 1.2-3.9 2.3-7.9 2.9-12 0.5-3.9 2.3-7.5 3.6-11.2 1.4-4.4 3-8.8 4.4-13.2 0.5-1.8 0.7-3.7 1.1-5.5 0-0.5 0.1-0.9 0.3-1.4 1.7-4.9 3.2-9.9 5.4-14.7 2.2-5.1 3.2-10.5 4.6-15.7 2.1-8.1 4.9-15.9 7.2-23.8 1.2-3.8 1.8-7.9 3-11.7 1-3.3 1.4-6.9 3.4-9.9q0.4 0.1 0.8 0.2z"/>
			<path id="&lt;Path&gt;" class="s0" d="m385.8 646.2c-0.1 0.5 0 1.1-0.2 1.7-14.9 49-28.4 98.4-44.5 147 0.2-0.8 0.3-1.7 0.6-2.5q3.2-11.6 6.6-23.1 3-10.4 6.1-20.9c2.3-7.7 4.7-15.5 6.9-23.2 2.1-7.4 4.1-14.7 6.2-22.1q4-13.9 8.1-27.8c1.8-6.1 3.3-12.4 5.8-18.3 1.5-3.6 2.1-7.4 3.5-11q0.5 0.1 0.9 0.2z"/>
			<path id="&lt;Path&gt;" class="s0" d="m174.9 975.4c0.4-0.4 0.8-0.8 1.4-1.3 0.4 0.6 0.8 1.2 1.2 1.9 1.2-2.1 2.4-4.2 3.9-6.8 0.3 1.1 0.6 1.5 0.5 1.8-1.2 2.9-2.5 5.7-3.5 8.6-0.4 1-0.3 2.2-0.4 3.3l0.1-0.1c-0.5 0.6-1.2 1.1-1.5 1.8-4 9-7.8 18-11.8 26.9-0.9 2.1-2.1 4.2-3.7 6 1.3-3.4 2.6-6.8 3.8-10.2 0.4-1.2 0.4-2.5 0.6-3.8 0.1-0.3-0.1-0.7 0-1 1.9-4.6 2.9-9.5 5.6-13.8 1-1.7 0.9-4 1.5-5.9 0.7-2.5 1.5-4.9 2.3-7.4z"/>
			<path id="&lt;Path&gt;" class="s0" d="m219.8 1052.2c2.6-6.2 5.3-12.4 7.9-18.8q0.3 0.7 0.6 1.7 2-4.2 3.9-8.4c0 0-0.2 0.1-0.2 0.1 0.6-0.6 1.5-1.2 1.9-2 1.9-4.2 3.7-8.5 5.6-12.7 1.2-2.7 2.6-5.3 4.1-8.4 0.4 2.8-0.2 5-1.1 7-2.8 5.7-5.4 11.4-8.2 17.1-3.4 6.6-7 13.2-10.2 19.9-2.1 4.3-3.6 8.8-5.4 13.2-0.8 2.1-1.6 4.2-3 6.1 1-3.3 2.1-6.7 3.1-10.1 0.4-1.6 0.7-3.2 1.1-4.8z"/>
			<path id="&lt;Path&gt;" class="s0" d="m195.9 940.9c-0.6 3.1-1.1 6.3-1.8 9.4-1.2 5-2.6 9.9-3.9 14.9-0.3 1-0.4 2.3-2.6 2.8 2.1-2.7 2.9-5.2 0.8-7.8 1.6-0.4 2.9-0.9 1.7-2.8-0.3-0.5-0.4-1.4-0.2-2 2-4.8 4-9.6 6-14.4 0 0 0-0.1 0-0.1z"/>
			<path id="&lt;Path&gt;" class="s0" d="m207.7 1064.4q6-17.3 12.1-34.7c0.6 3.3-1.5 5.9-1.5 9.2-0.1 2.7-2.2 5.5-3.2 8.3-1.2 3-2.1 6.1-3.2 9-1.2 2.9-2.5 5.7-3.7 8.5q-0.3-0.1-0.5-0.3z"/>
			<path id="&lt;Path&gt;" class="s0" d="m180.1 1003c1.8-9.9 5.1-19.5 5.2-29.9 1.8 0 2.6 0.6 2.2 2.4-1.5 6.2-2.9 12.4-4.5 18.6-0.8 3-1.9 5.9-2.9 8.9z"/>
			<path id="&lt;Path&gt;" class="s0" d="m262.6 987.4c-0.3-0.7-1-1.5-0.8-2 1.6-3.8 3.4-7.6 4.9-11.4 0.6-1.4 0.9-2.9 1.4-4.4 0.5-1.8 0.7-2 3-2.8-2.3 5-4 10.1-5.6 15.2-0.4 1.3-0.1 3-2.2 3.3-0.4 0-0.5 1.4-0.8 2.2z"/>
			<path id="&lt;Path&gt;" class="s0" d="m274.7 941.8c0.3 5.5-1.4 10.4-4 15-0.1-5.4 0.9-10.6 4-15z"/>
			<path id="&lt;Path&gt;" class="s0" d="m183.9 1002c2.2-6.7 2.8-13.9 6.4-20.2-0.2 1.1-0.3 2.3-0.6 3.7 0.7-0.6 1.1-1 1.5-1.4 0.2 0.2 0.5 0.4 0.4 0.5-1 1.8-0.3 4.6-3.2 5.3-0.3 0.1-0.6 1-0.7 1.6-0.7 2.8-1.2 5.6-1.9 8.3-0.2 0.9-0.7 1.7-1.1 2.5q-0.4-0.1-0.8-0.3z"/>
			<path id="&lt;Path&gt;" class="s0" d="m186.5 1031.1c-0.2 2.5-0.1 5-0.7 7.3-0.9 3.3-2.2 6.5-3.3 9.8q-0.4-0.1-0.8-0.1c0-1-0.4-2.2-0.1-3.1 1-3.4 2.3-6.8 3.5-10.1 0.4-1.2 0.9-2.4 1.4-3.7 0 0 0-0.1 0-0.1z"/>
			<path id="&lt;Path&gt;" class="s0" d="m178.1 1007.3c0.7 6.2-2.4 11.4-4.7 16.8-0.1-0.3-0.3-0.7-0.2-0.9q2.4-8 4.9-15.9z"/>
			<path id="&lt;Path&gt;" class="s0" d="m304.2 936.9c-1.3 5.4-2.4 10-3.5 14.5-1.4 0.4-1.9-0.3-1.7-1.2 1.1-4.1 2.3-8.1 3.6-12.2 0.1-0.3 0.7-0.5 1.6-1.1z"/>
			<path id="&lt;Path&gt;" class="s0" d="m184.9 1014.7q-3 10.2-6 20.5-0.3-0.1-0.6-0.2c0-0.4-0.1-0.8 0.1-1.3 1.4-5.1 2.9-10.2 4.4-15.3 0.4-1.4 0.4-3.1 2.2-3.7z"/>
			<path id="&lt;Path&gt;" class="s0" d="m198.5 1044c0.2-1.2 0.2-2.4 0.6-3.4 1.3-3.4 2.6-6.6 4-10 0.4 0.2 0.9 0.3 1.7 0.6-2.2 4.3-4.3 8.5-6.4 12.7z"/>
			<path id="&lt;Path&gt;" class="s0" d="m178 1052.2q-0.5-0.2-1-0.4c-0.2-0.1-0.5-0.3-1-0.6 1.1-2.4 2.1-4.8 3.1-7.1 0.2-0.5 0.7-0.9 1-1.3q0.3 0.2 0.7 0.3c-0.9 2.9-1.8 5.8-2.8 9.1z"/>
			<path id="&lt;Path&gt;" class="s0" d="m302.3 958.6q-2.5 6.3-4.9 12.7c-0.2-3.3 2.5-10.5 4.9-12.7z"/>
			<path id="&lt;Path&gt;" class="s0" d="m331.4 769.2q-1.7 4.6-3.5 9.2c0 0.1-0.4 0.1-0.9 0.2 0.8-3.6 0.9-7.2 3.3-9.9q0.6 0.2 1.1 0.5z"/>
			<path id="&lt;Path&gt;" class="s0" d="m178 982.9c0.6-0.6 1.2-1.2 1.8-1.8 0.5-0.4 1-0.7 1.4-1l-0.1-0.1c-0.2 0.7-0.9 1.4-0.7 1.9 0.9 3.2-0.5 5.7-2.3 8.7 0-2.9 0-5.4 0-7.8 0 0-0.1 0.1-0.1 0.1z"/>
			<path id="&lt;Path&gt;" class="s0" d="m180.9 949.8c0-0.6 0-1.1 0.1-1.6 0.9-3.9 2.6-7.6 2.3-11.7 0-0.3 0.9-0.7 2-0.6q-2 7-4 13.9-0.2 0-0.4 0z"/>
			<path id="&lt;Path&gt;" class="s0" d="m191.8 927.6q-2.1 5-4.2 10-0.4-0.1-0.8-0.2c0.9-3.1 1.8-6.2 2.8-9.3 0.2-0.5 1.1-0.7 1.7-1q0.2 0.2 0.5 0.5z"/>
			<path id="&lt;Path&gt;" class="s0" d="m176.3 1070.5c-1 1.6-1.9 2.8-2.6 3.9-0.6-2.3-0.6-2.3 3.4-11 0.8 2.7-2.5 4.7-0.8 7.1z"/>
			<path id="&lt;Path&gt;" class="s0" d="m291.6 971.3c1.3-3.9 2.6-7.7 4-11.6 0.2-0.5 0.9-0.9 1.8-1q-2.6 6.4-5.2 12.8-0.3-0.1-0.6-0.2z"/>
			<path id="&lt;Path&gt;" class="s0" d="m189.4 949.4c-0.3 5.3-3.6 9.3-5 14.3-0.2-2.2 2.9-11.1 5-14.3z"/>
			<path id="&lt;Path&gt;" class="s0" d="m211.1 1006.8q-2.1 6.8-4.1 13.7-0.4-0.1-0.8-0.2 2.1-6.9 4.1-13.7 0.4 0.1 0.8 0.2z"/>
			<path id="&lt;Path&gt;" class="s0" d="m286.6 994.5c-0.7 3.8-2.1 7.3-4.8 10.3 1.2-3.7 2.5-7.2 4.9-10.2z"/>
			<path id="&lt;Path&gt;" class="s0" d="m258.8 1005c-0.2-4.5 2-8.2 2.7-12.4q0.5 0.1 1 0.2-1.8 6.1-3.7 12.2z"/>
			<path id="&lt;Path&gt;" class="s0" d="m232.6 1044.9q1.1-3.5 2.1-6.9c0.5 0.6 1 1.4 1.6 2.4-0.8 1.4-1.9 3.1-2.9 4.8q-0.4-0.2-0.8-0.3z"/>
			<path id="&lt;Path&gt;" class="s0" d="m185 1014.7c0-1.4-0.1-2.9 0.2-4.4 0.4-2 0.9-4.1 1.6-6.1 0.3-0.9 1-1.7 1.6-2.5l-0.1-0.1q-1.7 6.5-3.4 13c0 0.1 0.1 0.1 0.1 0.1z"/>
			<path id="&lt;Path&gt;" class="s0" d="m322.4 902q-1.4 4.2-2.7 8.4-0.4-0.1-0.8-0.2c0.4-3 1.8-5.7 2.5-8.5q0.5 0.1 1 0.3z"/>
			<path id="&lt;Path&gt;" class="s0" d="m310.1 934.7c0.3 3.8-1.2 7-3 10.1 0.7-3.4 1.8-6.7 3.1-10z"/>
			<path id="&lt;Path&gt;" class="s0" d="m212.5 1067.3c0.2-3.1 2.6-5.1 3.9-7.6-0.1 3.1-2.7 5-3.9 7.6z"/>
			<path id="&lt;Path&gt;" class="s0" d="m202.5 1019.4c-0.1 1.2-0.2 2.3-0.4 3.4-0.4 1.3-1 2.4-2.6 2.2 0 0 0.1 0.1 0.1 0.1 0.5-2.1 0.2-4.7 3-5.6z"/>
			<path id="&lt;Path&gt;" class="s0" d="m314.9 925.3q-0.9 2.5-1.9 5c-0.7 1.7-0.7 3.8-2.9 4.4 0 0 0.1 0.1 0.1 0.1 0.8-2.2 2.3-4 2.3-6.6 0-1.3 0.5-2.8 2.4-2.9z"/>
			<path id="&lt;Path&gt;" class="s0" d="m176 991c0 2.5 0 4.7 0 7.3-2.3-3-2.3-3.4 0-7.3z"/>
			<path id="&lt;Path&gt;" class="s0" d="m226.5 987.5c-1.5-2.1-1.1-3.2 2-5.2-0.6 1.7-1.3 3.3-2 5.2z"/>
			<path id="&lt;Path&gt;" class="s0" d="m175 1047.1c-1-3.4 0.9-5.3 1.6-7.5q0.4 0.1 0.8 0.2c-0.8 2.2-1.5 4.5-2.4 7.3z"/>
			<path id="&lt;Path&gt;" class="s0" d="m314.9 925.3c-0.6-1.9-0.6-3.7 0.6-5.5 0.7-1 1-2.3 2-3.4-0.4 1.5-0.7 3-1.1 4.5-0.5 1.5-1 2.9-1.5 4.4z"/>
			<path id="&lt;Path&gt;" class="s0" d="m285.2 988.1q-1.5 3.8-3.1 7.6-0.4-0.2-0.8-0.3 1.5-3.9 3.1-7.7 0.4 0.2 0.8 0.4z"/>
			<path id="&lt;Path&gt;" class="s0" d="m288.1 919.5q-1.2 3.7-2.4 7.4-0.5-0.2-1-0.3 1.4-3.7 2.7-7.5 0.4 0.2 0.7 0.4z"/>
			<path id="&lt;Path&gt;" class="s0" d="m232 1007.2q-1.1-0.1-2.2-0.1l0.1 0.1c0.1-2 1.3-3.5 2.4-5.1q0.3 0.1 0.7 0.2-0.5 2.5-1.1 5z"/>
			<path id="&lt;Path&gt;" class="s0" d="m444.4 477.1q-1 4.3-2.1 8.5-0.3-0.1-0.6-0.1 0.9-4.4 1.8-8.7 0.5 0.2 0.9 0.3z"/>
			<path id="&lt;Path&gt;" class="s0" d="m451.1 452.2q-1 3.5-2 6.9-0.2 0-0.4-0.1 0.7-3.5 1.5-7 0.4 0.1 0.9 0.2z"/>
			<path id="&lt;Path&gt;" class="s0" d="m286.7 994.6c0.2-2.8 1.1-5.2 2.8-7.4-0.2 2.7-1.2 5.1-2.9 7.3 0 0 0.1 0.1 0.1 0.1z"/>
			<path id="&lt;Path&gt;" class="s0" d="m257.9 1026.1q-1.5 3.1-3 6.3-0.3-0.2-0.6-0.3 1.4-3.2 2.8-6.4 0.4 0.2 0.8 0.4z"/>
			<path id="&lt;Path&gt;" class="s0" d="m222.5 1042.2c-0.6-2.5 0.9-4.2 2.3-5.9q-1.2 3-2.3 5.9z"/>
			<path id="&lt;Path&gt;" class="s0" d="m303 954.5c0.6-1.8 1.2-3.6 1.8-5.5 1 2.1 0.9 2.4-1.8 5.5z"/>
			<path id="&lt;Path&gt;" class="s0" d="m177.2 1061.6c0.6-2.2 1.1-4.3 1.8-7.1 0.7 2.9 0.4 4.3-1.8 7.1z"/>
			<path id="&lt;Path&gt;" class="s0" d="m269.8 964c-1.1-2.4 0.3-3.9 1.5-5.8 0.2 2.2 0.2 2.2-1.5 5.8z"/>
			<path id="&lt;Path&gt;" class="s0" d="m202.6 1019.5c0.7-2.1 1.5-4.2 2.4-7 0.4 3.3-0.3 5.2-2.5 6.9 0 0 0.1 0.1 0.1 0.1z"/>
			<path id="&lt;Path&gt;" class="s0" d="m334.9 817.1q-0.9 3.4-1.7 6.8c-1.2-2.5 0.4-4.6 0.7-6.8q0.5 0 1 0z"/>
			<path id="&lt;Path&gt;" class="s0" d="m307.7 922.1c0.8-1.4 0.4-3.5 3.3-3.5q-1.3 2-2.7 3.9-0.3-0.2-0.6-0.4z"/>
			<path id="&lt;Path&gt;" class="s0" d="m217.3 1015.3q1.2-3 2.4-6 0.3 0.1 0.7 0.2-1.1 3.1-2.2 6.2-0.4-0.2-0.9-0.4z"/>
			<path id="&lt;Path&gt;" class="s0" d="m183.8 1074.3q-0.9 2.7-1.9 5.4-0.2-0.1-0.5-0.2 0.8-2.7 1.6-5.4 0.4 0.1 0.8 0.2z"/>
			<path id="&lt;Path&gt;" class="s0" d="m217.2 1005.6q-0.8 2.3-1.7 4.6-0.4-0.1-0.9-0.3 0.7-2.3 1.5-4.7 0.5 0.2 1.1 0.4z"/>
			<path id="&lt;Path&gt;" class="s0" d="m294.4 977.5q-1 2.5-2 5-0.4-0.1-0.9-0.3 1-2.6 2-5.1 0.5 0.2 0.9 0.4z"/>
			<path id="&lt;Path&gt;" class="s0" d="m203.4 1077.7q-1.2 2.8-2.3 5.6c-0.5-2.4 0.7-4.1 2.3-5.6z"/>
			<path id="&lt;Path&gt;" class="s0" d="m392.5 604.6c0.1 1.9 0.3 3.8-0.8 5.3q-0.3-0.1-0.7-0.3 0.7-2.5 1.5-5z"/>
			<path id="&lt;Path&gt;" class="s0" d="m219.9 1052.1q-0.8 1.1-1.6 2.2-0.3-0.1-0.5-0.2 1-3 2.1-6 0.2 0 0.4 0.1-0.3 2-0.5 4c0 0 0.1-0.1 0.1-0.1z"/>
			<path id="&lt;Path&gt;" class="s0" d="m292.1 893.2c-0.7-2-0.3-3.8 1.4-5.1q-0.7 2.5-1.4 5.1z"/>
			<path id="&lt;Path&gt;" class="s0" d="m251.6 1024.5q1-2.7 2-5.3 0.2 0 0.5 0.1c-0.3 1.3-0.5 2.7-1 4-0.2 0.5-1 0.8-1.5 1.2z"/>
			<path id="&lt;Path&gt;" class="s0" d="m305.6 931.3c-0.3 1.2-0.6 2.5-0.9 4-1.2-1.5-1.2-1.5 0.1-4.3q0.4 0.1 0.8 0.3z"/>
			<path id="&lt;Path&gt;" class="s0" d="m373.4 723.4c0.3-1.4 0.6-2.8 1-4.6 0.5 2.6 0.5 2.6-1 4.6z"/>
			<path id="&lt;Path&gt;" class="s0" d="m188.4 1001.7q0.5-3.3 1.1-6.6c0.7 2.4 0 4.5-1.2 6.5 0 0 0.1 0.1 0.1 0.1z"/>
			<path id="&lt;Path&gt;" class="s0" d="m187.8 1060.5q-0.3 2.8-0.5 5.7c-2-2.3 0.5-3.7 0.5-5.6 0-0.1 0-0.1 0-0.1z"/>
			<path id="&lt;Path&gt;" class="s0" d="m214.6 1012.7c-0.6 0.9-1.2 1.8-1.9 3-1.1-2.1 0-2.8 1.9-3z"/>
			<path id="&lt;Path&gt;" class="s0" d="m243.4 992.4q-0.9 2.1-1.7 4.2-0.4-0.1-0.7-0.2 0.8-2.1 1.6-4.3 0.4 0.2 0.8 0.3z"/>
			<path id="&lt;Path&gt;" class="s0" d="m310.5 914.4c0.6-0.8 1.2-1.6 2.2-2.8 0 1.9-0.3 3-1.5 3.5q-0.4-0.3-0.7-0.7z"/>
			<path id="&lt;Path&gt;" class="s0" d="m317.2 809.8c1.5 1.7 1 2.8-1.2 3.6 0.5-1.4 0.8-2.5 1.2-3.6z"/>
			<path id="&lt;Path&gt;" class="s0" d="m171.2 1082.8c-1.6-2.5 1-2.9 1.2-4.1-0.3 1.1-0.7 2.3-1.2 4.1z"/>
			<path id="&lt;Path&gt;" class="s0" d="m402.6 625q-0.5 1.7-1.1 3.4-0.4-0.2-0.8-0.3c0-1.2 0.6-2.2 1.2-3.2q0.4 0 0.7 0.1z"/>
			<path id="&lt;Path&gt;" class="s0" d="m331.4 828.6q-0.4 1.5-0.8 3.1-0.3-0.1-0.7-0.1 0.2-1.6 0.4-3.2 0.6 0.1 1.1 0.2z"/>
			<path id="&lt;Path&gt;" class="s0" d="m238.6 1027.3q-0.2 1.8-0.4 3.6-0.3-0.1-0.7-0.1 0.2-1.8 0.5-3.6 0.3 0.1 0.6 0.1z"/>
			<path id="&lt;Path&gt;" class="s0" d="m252.7 977.3q0.4-1.9 0.8-3.7 0.2 0 0.5 0.1-0.4 1.9-0.8 3.8-0.3-0.1-0.5-0.2z"/>
			<path id="&lt;Path&gt;" class="s0" d="m335 814.5q0.6-1.7 1.1-3.4 0.4 0.1 0.8 0.2-0.7 1.7-1.3 3.3-0.3 0-0.6-0.1z"/>
			<path id="&lt;Path&gt;" class="s0" d="m256.9 961.8c0.1-1.9-0.2-4 1.9-5.3h-0.1c-0.6 1.7 0 3.9-1.9 5.3z"/>
			<path id="&lt;Path&gt;" class="s0" d="m218.8 979.6q-0.3 2.4-0.7 4.9-0.3-0.1-0.6-0.2 0.7-2.3 1.4-4.6c0 0-0.1-0.1-0.1-0.1z"/>
			<path id="&lt;Path&gt;" class="s0" d="m220.3 1006.8c0.7-1.7 1.1-2.9 1.7-4.5 0.3 2.3 0.3 2.3-1.7 4.5z"/>
			<path id="&lt;Path&gt;" class="s0" d="m251.6 1024.5c0.8 2 0 3.7-1.2 5.3q0.6-2.6 1.2-5.3 0 0 0 0z"/>
			<path id="&lt;Path&gt;" class="s0" d="m321.7 796.1c0.2 2.4 0.2 2.4-1.6 3.6 0.6-1.3 0.9-2.1 1.6-3.6z"/>
			<path id="&lt;Path&gt;" class="s0" d="m278.6 1012.9q-0.6 1.6-1.3 3.2-0.4-0.1-0.8-0.3 0.7-1.7 1.4-3.4 0.4 0.2 0.7 0.5z"/>
			<path id="&lt;Path&gt;" class="s0" d="m223.6 1027.5c0.5-0.9 0.9-1.8 1.5-3 0.2 1.8 0.2 1.8-1.5 3z"/>
			<path id="&lt;Path&gt;" class="s0" d="m337.1 809.6c-0.4-0.7-0.6-0.9-0.5-1.1 0.3-1 0.7-1.9 1.3-2.8 0.6 1.4-0.4 2.4-0.8 3.9z"/>
			<path id="&lt;Path&gt;" class="s0" d="m268.6 1001.1c0.3-1 0.7-2 1.2-3.5 0.3 2 0.3 2-1.2 3.5z"/>
			<path id="&lt;Path&gt;" class="s0" d="m289.7 978q-0.6 1.1-1.2 2.2-0.2-0.1-0.5-0.2 0.5-1.2 1-2.5 0.4 0.3 0.7 0.5z"/>
			<path id="&lt;Path&gt;" class="s0" d="m177.3 970.9c0.5-1.4 0.8-2.3 1.3-3.8 0.3 1.8 1 2.9-1.3 3.8z"/>
			<path id="&lt;Path&gt;" class="s0" d="m185.8 967q-0.7 0.8-1.5 1.7-0.2-0.1-0.5-0.3 0.6-1 1.1-2 0.5 0.3 0.9 0.6z"/>
			<path id="&lt;Path&gt;" class="s0" d="m204 1073.4q0.6-1.4 1.1-2.8 0.2 0.1 0.5 0.2-0.5 1.5-0.9 2.9-0.3-0.1-0.7-0.3z"/>
			<path id="&lt;Path&gt;" class="s0" d="m315.9 900.1q-0.3 1.2-0.7 2.5-0.3-0.1-0.6-0.1 0.2-1.3 0.4-2.5 0.5 0 0.9 0.1z"/>
			<path id="&lt;Path&gt;" class="s0" d="m223.1 999.4q0.2-1 0.4-2.1 0.2 0.1 0.4 0.1 0 1 0 2-0.4 0-0.8 0z"/>
			<path id="&lt;Path&gt;" class="s0" d="m318.1 806.5q0.3-1.1 0.6-2.1 0.3 0.1 0.7 0.2-0.2 1-0.4 2.1-0.4-0.1-0.9-0.2z"/>
			<path id="&lt;Path&gt;" class="s0" d="m397.1 592.2q-0.4 1.1-0.7 2.2-0.3 0-0.5 0c0-0.5-0.1-1 0-1.4 0.1-0.4 0.4-0.7 0.7-1.1q0.2 0.1 0.5 0.3z"/>
			<path id="&lt;Path&gt;" class="s0" d="m209.5 1083.4q0.4-1.1 0.7-2.2 0.3 0.1 0.6 0.2-0.4 1.1-0.8 2.3-0.2-0.1-0.5-0.3z"/>
			<path id="&lt;Path&gt;" class="s0" d="m250 1032.2q-0.3 1.3-0.7 2.5-0.3-0.1-0.5-0.2 0.3-1.2 0.7-2.4 0.3 0.1 0.5 0.1z"/>
			<path id="&lt;Path&gt;" class="s0" d="m192.3 975.9q-0.3 1.2-0.6 2.4-0.2 0-0.5-0.1 0.2-1.2 0.5-2.5 0.3 0.1 0.6 0.2z"/>
			<path id="&lt;Path&gt;" class="s0" d="m169.5 1010q0.4-1 0.7-1.9c0 0 0.4 0.1 0.6 0.2q-0.3 1-0.6 1.9-0.3-0.1-0.7-0.2z"/>
			<path id="&lt;Path&gt;" class="s0" d="m258.8 956.5q-0.1-1.6-0.3-3.2 0.5 0 1 0c0.8 1.2-0.3 2.1-0.8 3.1 0 0.1 0.1 0.1 0.1 0.1z"/>
			<path id="&lt;Path&gt;" class="s0" d="m198.4 1043.9q-0.8 1.7-1.6 3.3c-0.2-1.6-0.5-3.2 1.7-3.2 0 0-0.1-0.1-0.1-0.1z"/>
			<path id="&lt;Path&gt;" class="s0" d="m198.9 918.3q-0.2 0.9-0.4 1.8-0.3-0.1-0.6-0.2 0.2-0.8 0.4-1.7 0.3 0.1 0.6 0.1z"/>
			<path id="&lt;Path&gt;" class="s0" d="m210.9 1018.7q-0.6 1.5-1.1 3-0.4-0.1-0.8-0.3 0.6-1.5 1.2-3 0.3 0.1 0.7 0.3z"/>
			<path id="&lt;Path&gt;" class="s0" d="m186.7 1057.6q-0.5 1.2-1 2.3-0.1 0-0.2 0 0.3-1.3 0.6-2.5 0.3 0.1 0.6 0.2z"/>
			<path id="&lt;Path&gt;" class="s0" d="m287.2 904.5q0.4-1.1 0.7-2.2 0.3 0.1 0.6 0.1-0.2 1.2-0.4 2.3-0.4-0.1-0.9-0.2z"/>
			<path id="&lt;Path&gt;" class="s0" d="m232 1026.8c0 0 0.2-0.1 0.2-0.1q0.1-1.4 0.1-2.9 0.4 0.1 0.7 0.2-0.5 1.4-1 2.8z"/>
			<path id="&lt;Path&gt;" class="s0" d="m167.2 1091.5q-0.4 1-0.8 2.1-0.2 0-0.3-0.1 0.4-1.1 0.7-2.2 0.2 0.1 0.4 0.2z"/>
			<path id="&lt;Path&gt;" class="s0" d="m233 946.5q0.3-1.2 0.6-2.3 0.3 0.1 0.5 0.1-0.2 1.2-0.5 2.3-0.3-0.1-0.6-0.1z"/>
			<path id="&lt;Path&gt;" class="s0" d="m440 491q0.4-1 0.8-2 0.2 0.1 0.5 0.2-0.3 1-0.6 2.1-0.3-0.2-0.7-0.3z"/>
			<path id="&lt;Path&gt;" class="s0" d="m359.2 772.9q0.3-0.9 0.6-1.8 0.3 0.1 0.6 0.2-0.2 0.9-0.5 1.9-0.3-0.2-0.7-0.3z"/>
			<path id="&lt;Path&gt;" class="s0" d="m214 995.2q0.5-1.1 1-2.3 0.2 0.1 0.4 0.2-0.4 1.2-0.8 2.5-0.3-0.2-0.6-0.4z"/>
			<path id="&lt;Path&gt;" class="s0" d="m221.1 991.4q-0.5 0.9-0.9 1.9-0.2-0.1-0.4-0.2 0.4-1 0.7-2.1 0.3 0.2 0.6 0.4z"/>
			<path id="&lt;Path&gt;" class="s0" d="m262.5 987.5c0.4-0.2 0.7-0.5 1.8-1.3-0.4 1.5-0.6 2.3-0.9 3.1q-0.2-0.1-0.4-0.1-0.2-0.9-0.4-1.8c0 0-0.1 0.1-0.1 0.1z"/>
			<path id="&lt;Path&gt;" class="s0" d="m252.2 982.6c-0.3 0.1-0.6 0.2-1.3 0.5 0.2-0.9 0.4-1.6 0.6-2.2q0.1 0 0.3 0 0.2 0.9 0.3 1.8c0 0 0.1-0.1 0.1-0.1z"/>
			<path id="&lt;Path&gt;" class="s0" d="m328.1 837.5q0.4-1.1 0.7-2.2 0.3 0.1 0.5 0.2-0.3 1.1-0.7 2.1-0.2 0-0.5-0.1z"/>
			<path id="&lt;Path&gt;" class="s0" d="m303 855.7q0.2-1.5 0.5-3 0.3 0.1 0.6 0.1-0.3 1.5-0.6 3-0.3 0-0.5-0.1z"/>
			<path id="&lt;Path&gt;" class="s0" d="m196.5 970.3q0 1.7-0.1 3.3-0.4 0-0.7-0.1 0.4-1.5 0.9-3.1c0 0-0.1-0.1-0.1-0.1z"/>
			<path id="&lt;Path&gt;" class="s0" d="m255.7 966.3q-0.1 1.2-0.3 2.5-0.2 0-0.4-0.1 0-1.2 0.1-2.5 0.3 0 0.6 0.1z"/>
			<path id="&lt;Path&gt;" class="s0" d="m207.3 1009.3c1.1 1.5 0 1.7-0.9 2 0.2-0.6 0.5-1.2 0.9-2z"/>
			<path id="&lt;Path&gt;" class="s0" d="m177.3 1054.5q-0.4 0.8-0.9 1.7-0.2-0.1-0.4-0.2 0.4-0.9 0.8-1.9 0.2 0.2 0.5 0.4z"/>
			<path id="&lt;Path&gt;" class="s0" d="m256.8 961.8c0.4 0.9 0.8 1.8-0.7 2.3q0.4-1.1 0.8-2.3c0 0-0.1 0-0.1 0z"/>
			<path id="&lt;Path&gt;" class="s0" d="m204.2 1026q0.3-0.8 0.7-1.6 0.2 0.1 0.4 0.3-0.3 0.7-0.7 1.5-0.2-0.1-0.4-0.2z"/>
			<path id="&lt;Path&gt;" class="s0" d="m320.9 880.7q0.3-0.8 0.6-1.6 0.3 0.1 0.6 0.2-0.3 0.8-0.6 1.6-0.3-0.1-0.6-0.2z"/>
			<path id="&lt;Path&gt;" class="s0" d="m302.3 859.7q-0.5 1-0.9 1.9-0.3-0.1-0.5-0.2 0.3-1 0.7-1.9 0.3 0.1 0.7 0.2z"/>
			<path id="&lt;Path&gt;" class="s0" d="m224.2 977.3q0.4-0.9 0.8-1.7 0.2 0.1 0.4 0.1-0.4 1-0.7 2-0.3-0.2-0.5-0.4z"/>
			<path id="&lt;Path&gt;" class="s0" d="m181.2 980.1c0-0.7-0.1-1.4-0.1-2.6 1.7 1.4 1.3 2 0 2.5 0 0 0.1 0.1 0.1 0.1z"/>
			<path id="&lt;Path&gt;" class="s0" d="m183.3 1006.3c0-1.1 0-1.7 0-2.7 1.4 0.9 1 1.5 0 2.7z"/>
			<path id="&lt;Path&gt;" class="s0" d="m266.5 1008.1q-0.5 0.9-0.9 1.9-0.3-0.1-0.5-0.1 0.4-1.1 0.7-2.1 0.4 0.1 0.7 0.3z"/>
			<path id="&lt;Path&gt;" class="s0" d="m180.9 1082.1q-0.4 1-0.8 2-0.2 0-0.4-0.1 0.4-1.2 0.7-2.4 0.3 0.3 0.5 0.5z"/>
			<path id="&lt;Path&gt;" class="s0" d="m177.6 1089.6q0.3-1 0.7-2.1 0.2 0.1 0.4 0.1-0.3 1.1-0.5 2.2-0.3-0.1-0.6-0.2z"/>
			<path id="&lt;Path&gt;" class="s0" d="m174.9 975.4q0-1.5 0-3c1 1.1 0.2 2 0 3 0 0 0 0 0 0z"/>
			<path id="&lt;Path&gt;" class="s0" d="m260.7 911.9c-3.1 11.5-7.7 22.5-12.2 33.4q-0.4-0.1-0.7-0.2 6.1-16.7 12.1-33.5 0.4 0.2 0.8 0.3z"/>
			<path id="&lt;Path&gt;" class="s0" d="m276.1 892.5c0.3 3 0.3 3-1.8 5.9q0.4-1.5 0.8-2.9 0.5-1.5 1-3 0 0 0 0z"/>
			<path id="&lt;Path&gt;" class="s0" d="m239.9 978.5c0.7-2.1 1.4-4.2 2.1-6.3 2.2 2.7 1.1 3.1-2.1 6.3z"/>
		</g>
	</g>
</svg>